<?xml version="1.0" encoding="UTF-8"?>
<svg xmlns="http://www.w3.org/2000/svg" version="1.1" viewBox="0 0 1413.024 362.888">
  <defs>
    <style>
      .cls-1 {
        fill: #e73337;
      }

      .cls-2 {
        fill: #fff;
      }

      .cls-3 {
        fill: #ffe500;
      }
    </style>
  </defs>
  <!-- Generator: Adobe Illustrator 28.7.0, SVG Export Plug-In . SVG Version: 1.2.0 Build 136)  -->
  <g>
    <g id="Cambridge_logo">
      <g id="OCR">
        <path d="M1367.446,304.467c13.468-4.198,26.599-14.693,26.599-32.184,0-21.514-17.211-34.282-41.467-34.282h-34.34v122.437h15.742v-53.873h17.898l33.779,53.873h17.698l-35.91-55.971ZM1333.981,293.273v-41.979h18.947c16.334,0,25.375,7.346,25.375,20.989,0,13.969-9.145,20.99-25.375,20.99h-18.947Z"/>
        <path d="M1111.455,235.552c-35.683,0-63.843,27.111-63.843,63.667s28.161,63.668,63.843,63.668,63.843-27.112,63.843-63.668-28.161-63.667-63.843-63.667ZM1111.455,349.594c-26.586,0-48.1-18.89-48.1-50.375s21.515-50.375,48.1-50.375,48.1,18.891,48.1,50.375-21.513,50.375-48.1,50.375Z"/>
        <path d="M1255.287,248.845c15.743,0,26.586,6.123,35.682,14.518h1.748l-1.049-17.317c-9.27-6.296-20.813-10.494-35.682-10.494-34.807,0-62.792,26.587-62.792,63.667s27.462,63.668,62.268,63.668c14.867,0,26.937-4.198,36.207-10.495l1.049-17.316h-1.748c-9.097,8.396-19.94,14.517-35.682,14.517-24.663,0-46.352-18.89-46.352-50.375s21.689-50.375,46.352-50.375Z"/>
      </g>
      <path id="Cambridge" d="M1401.402,41.276l.357,27.744s-3.367.849-4.431,1.14c-.995-12.126-3.742-22.03-23.139-22.03h-26.065v51.283h22.374c10.975,0,13.957-6.139,15.199-16.73h4.453v42.884l-4.441.066c-.689-10.256-3.102-18.219-15.12-18.219h-22.466v45.029c0,13.09,11.274,13.09,23.216,13.09,21.423,0,31.353-1.344,37.342-23.02.872.222,4.392.977,4.392.977l-5.999,28.904h-97.323v-4.8h1.854c7.468,0,14.371-1.393,14.371-11.58V57.656c0-10.177-6.902-11.588-14.371-11.588h-1.854v-4.793h91.65M871.014,41.276h-58.696v4.793h2.589c4.834,0,13.817,0,13.817,15.192v95.333c0,8.124-7.443,11.001-13.817,11.001h-2.589v4.8h56.994v-4.8h-2.599c-9.279,0-15.84-1.143-15.84-15.944v-40.828h14.48l39.015,61.573h33.564v-4.9c-8.851-.482-13.052-3.548-18.196-11.488l-32.164-48.965.847-.347c11.47-4.647,26.035-14.092,26.035-32.743,0-21.984-14.411-32.677-43.44-32.677M863.56,46.617c16.781,0,27.922,11.187,27.922,28.475,0,21.306-8.996,30.401-29.407,30.401h-11.203l.01-58.048c3.721-.599,8.746-.829,12.677-.829ZM1000.694,41.251h-54.77v4.795h1.847c7.473,0,14.373,1.411,14.373,11.583v98.368c0,10.177-6.9,11.577-14.373,11.577h-1.847v4.795h54.77v-4.795h-1.854c-7.468,0-14.373-1.4-14.373-11.577V57.628c0-10.172,6.904-11.583,14.373-11.583h1.854v-4.795M250.582,106.726c0,44.185,26.973,69.138,69.258,69.138,20.798,0,39.071-8.152,50.901-23.448l-3.431-6.42c-10.504,13.503-24.42,20.811-43.935,20.811-34.722,0-49.059-30.623-49.059-63.009,0-36.382,17.732-58.976,46.271-58.976,27.777,0,36.003,16.11,40.946,33.709l4.308-.556-1.388-30.35c-13.669-6.384-27.644-9.417-44.412-9.417-18.724,0-35.304,6.356-47.934,17.681-13.618,12.197-21.525,31.342-21.525,50.837M533.317,66.627s46.96,105.602,47.409,106.666h3.956c.444-1.048,45.338-108.808,45.338-108.808,0,0,3.992,83.82,3.992,83.845l.189,9.402c0,8.902-6.402,9.272-15.263,9.807,0,0-.207.008-.357.023v4.734h54.408v-4.734c-10.037-.375-15.373-1.296-16.148-11.47l-5.071-86.967c-1.112-18.533,1.502-23.117,16.248-23.117h.696l.008-4.829h-36.388c-.444,1.048-42.129,99.384-42.129,99.384,0,0-44.088-98.318-44.532-99.368h-37.112v4.772h1.517c10.42,0,16.615,6.418,15.947,17.727l-5.134,82.894c-.691,12.103-1.604,20.387-16.495,20.979h-1.686v4.765h44.198v-4.765h-1.12c-12.047-.452-17.61-2.023-16.819-19.956,0-.005,4.349-80.983,4.349-80.983M1082.912,172.334c18.184,0,36.143-4.341,48.975-17.054,12.748-12.654,20.064-30.445,20.064-48.817,0-19.666-6.65-36.225-19.209-47.922-12.748-11.866-31.001-17.344-52.788-17.344l-58.616.051v4.8h1.857c7.463,0,14.368,1.403,14.368,11.58v98.348c0,10.19-6.905,11.585-14.368,11.585h-1.857v4.808l61.575-.036ZM1073.166,46.882c36.878,0,54.813,19.785,54.813,63.238,0,27.958-15.082,56.484-48.21,56.484-14.064,0-19.943-2.245-19.943-16.148l.01-102.96c3.14-.326,10.08-.615,13.33-.615ZM1263.539,165.625c-4.907,2.234-13.207,3.461-21.232,3.285-34.814,0-50.403-32.911-50.403-66.118,0-36.145,18.467-58.604,48.929-58.604,22.576,0,32.628,8.838,38.063,31.381l4.397-.275-2.086-31.299c-10.134-3.39-26.116-6.484-41.665-6.484-34.714,0-71.607,21.038-71.607,67.212,0,43.41,27.978,71.467,71.253,71.467,17.931,0,34.069-3.056,46.098-6.927l.02-35.783c0-7.032,3.727-10.754,10.774-10.754h1.525v-4.678h-50.401v4.678h1.533c9.687,0,14.801,3.721,14.801,10.754v32.146M742.741,104.468c20.543,0,32.804,11.43,32.804,31.567,0,17.908-12.052,31.054-28.021,31.054-13.302,0-17.383-3.67-17.383-16.482v-46.139h12.6ZM742.012,46.084c17.258,0,26.007,8.613,26.007,27.134,0,16.763-9.95,25.522-28.014,25.522h-9.863v-52.656h11.871ZM757.015,100.984c16.089-2.599,34.365-10.282,34.365-31.052,0-18.765-15.049-28.672-42.379-28.672l-58.208.028v4.795h2.594c4.816,0,13.807,0,13.807,15.186v95.132c0,8.139-7.448,11.172-13.807,11.172h-2.594v4.749l64.236.008c24.525,0,43.389-16.487,43.389-37.066,0-8.624-3.017-16.033-8.731-21.874-7.387-7.568-16.169-11.2-32.671-12.406M438.762,41.253l42.703,113.762c3.166,8.994,7.797,12.539,14.564,12.539h.398l-.013,4.836h-50.763l-.005-4.836h1.15c9.871,0,13.738-4.13,10.771-13.225l-10.333-28.82h-41.316l-9.524,26.44c-4.181,12.401,2.357,15.47,11.963,15.47h1.735l.013,4.918h-39.905l.018-4.918h.446c8.073,0,13.521-4.961,16.607-13.003,0-.013,41.616-113.18,41.616-113.18l9.873.018ZM408.246,119.066h36.684l-18.316-51.077-18.367,51.077Z"/>
      <g id="Shield">
        <path id="Shield_Border" d="M0,0v124.194C0,185.259,32.067,202.686,47.477,211.063c2.83,1.537,50.387,25.177,53.434,26.689l2.049,1.095,2.047-1.094c2.752-1.368,50.598-25.148,53.434-26.69,15.41-8.377,47.479-25.805,47.479-86.869V0H0Z"/>
        <path id="White_cross" class="cls-2" d="M102.96,233.798s9.768-4.852,20.949-10.418v-97.883h77.549c.004-.435.01-.863.01-1.302v-40.596h-77.559V4.45h-41.899v79.148H4.451v40.596h0c0,.439.008.867.01,1.302h77.549v97.881c11.18,5.568,20.95,10.42,20.95,10.42Z"/>
        <g id="Red_quadrants">
          <rect class="cls-1" x="4.451" y="4.45" width="77.559" height="79.148"/>
          <rect class="cls-1" x="123.909" y="4.45" width="77.559" height="79.148"/>
          <path class="cls-1" d="M82.01,125.497H4.46c.443,56.736,29.537,73.172,45.144,81.655,1.58.86,18.148,9.126,32.405,16.226v-97.881Z"/>
          <path class="cls-1" d="M123.909,125.497v97.883c14.259-7.101,30.825-15.368,32.407-16.228,15.605-8.483,44.701-24.918,45.142-81.655h-77.549Z"/>
        </g>
        <g id="Ermine_tales">
          <g>
            <path d="M151.772,105.365l1.602-1.905-2.023-2.401-2.025,2.401,1.604,1.905c.022.959.082,9.353-4.865,12.353,0,0,1.648.317,3.864-.111,0,0,.382,2.188,1.422,4.685,1.037-2.496,1.422-4.685,1.422-4.685,2.215.428,3.864.111,3.864.111-4.949-3-4.889-11.394-4.865-12.353Z"/>
            <path d="M164.402,91.108l1.602-1.903-2.023-2.403-2.025,2.403,1.604,1.903c.024.961.084,9.353-4.865,12.352,0,0,1.648.318,3.864-.108,0,0,.382,2.186,1.422,4.684,1.037-2.498,1.422-4.684,1.422-4.684,2.215.426,3.864.108,3.864.108-4.949-2.999-4.887-11.392-4.865-12.352Z"/>
            <path d="M177.034,105.365l1.6-1.905-2.023-2.401-2.023,2.401,1.602,1.905c.024.959.084,9.353-4.865,12.353,0,0,1.65.317,3.864-.111,0,0,.382,2.188,1.422,4.685,1.037-2.496,1.422-4.685,1.422-4.685,2.215.428,3.864.111,3.864.111-4.949-3-4.889-11.394-4.863-12.353Z"/>
            <path d="M189.665,91.108l1.6-1.903-2.023-2.403-2.023,2.403,1.602,1.903c.024.961.084,9.353-4.865,12.352,0,0,1.65.318,3.862-.108,0,0,.384,2.186,1.424,4.684,1.039-2.498,1.424-4.684,1.424-4.684,2.213.426,3.862.108,3.862.108-4.947-2.999-4.887-11.392-4.863-12.352Z"/>
            <path d="M139.141,91.108l1.602-1.903-2.025-2.403-2.023,2.403,1.602,1.903c.024.961.084,9.353-4.865,12.352,0,0,1.65.318,3.864-.108,0,0,.383,2.186,1.422,4.684,1.039-2.498,1.424-4.684,1.424-4.684,2.213.426,3.864.108,3.864.108-4.949-2.999-4.889-11.392-4.865-12.352Z"/>
          </g>
          <g>
            <path d="M29.714,105.365l1.6-1.905-2.023-2.401-2.023,2.401,1.602,1.905c.024.959.084,9.353-4.865,12.353,0,0,1.65.317,3.864-.111,0,0,.384,2.188,1.422,4.685,1.038-2.496,1.424-4.685,1.424-4.685,2.213.428,3.864.111,3.864.111-4.949-3-4.889-11.394-4.865-12.353Z"/>
            <path d="M42.344,91.108l1.6-1.903-2.023-2.403-2.021,2.403,1.602,1.903c.024.961.084,9.353-4.867,12.352,0,0,1.65.318,3.865-.108,0,0,.382,2.186,1.42,4.684,1.039-2.498,1.424-4.684,1.424-4.684,2.213.426,3.864.108,3.864.108-4.949-2.999-4.889-11.392-4.865-12.352Z"/>
            <path d="M54.974,105.365l1.6-1.905-2.021-2.401-2.025,2.401,1.604,1.905c.022.959.082,9.353-4.865,12.353,0,0,1.648.317,3.862-.111,0,0,.384,2.188,1.424,4.685,1.037-2.496,1.422-4.685,1.422-4.685,2.213.428,3.864.111,3.864.111-4.951-3-4.887-11.394-4.865-12.353Z"/>
            <path d="M67.605,91.108l1.602-1.903-2.023-2.403-2.023,2.403,1.602,1.903c.022.961.084,9.353-4.865,12.352,0,0,1.648.318,3.862-.108,0,0,.387,2.186,1.424,4.684,1.037-2.498,1.422-4.684,1.422-4.684,2.213.426,3.864.108,3.864.108-4.949-2.999-4.887-11.392-4.865-12.352Z"/>
            <path d="M17.081,91.108l1.604-1.903-2.025-2.403-2.023,2.403,1.602,1.903c.024.961.084,9.353-4.865,12.352,0,0,1.649.318,3.864-.108,0,0,.384,2.186,1.422,4.684,1.04-2.498,1.422-4.684,1.422-4.684,2.215.426,3.863.108,3.863.108-4.947-2.999-4.887-11.392-4.865-12.352Z"/>
          </g>
          <g>
            <path d="M103.381,137.306l1.6-1.903-2.023-2.403-2.023,2.403,1.604,1.903c.022.96.082,9.351-4.867,12.352,0,0,1.65.319,3.864-.109,0,0,.385,2.187,1.422,4.686,1.037-2.499,1.422-4.686,1.422-4.686,2.215.428,3.866.109,3.866.109-4.951-3-4.891-11.392-4.865-12.352Z"/>
            <path d="M103.381,180.194l1.6-1.905-2.023-2.403-2.023,2.403,1.604,1.905c.022.959.082,9.353-4.867,12.353,0,0,1.65.317,3.864-.111,0,0,.385,2.187,1.422,4.685,1.037-2.498,1.422-4.685,1.422-4.685,2.215.428,3.866.111,3.866.111-4.951-3-4.891-11.395-4.865-12.353Z"/>
            <g>
              <path d="M115.157,158.749l1.604-1.903-2.025-2.403-2.023,2.403,1.602,1.903c.024.961.086,9.354-4.865,12.354,0,0,1.65.317,3.866-.111,0,0,.382,2.187,1.42,4.686,1.04-2.498,1.424-4.686,1.424-4.686,2.213.428,3.862.111,3.862.111-4.947-3-4.887-11.394-4.865-12.354Z"/>
              <path d="M91.602,158.749l1.604-1.903-2.025-2.403-2.023,2.403,1.602,1.903c.024.961.086,9.354-4.865,12.354,0,0,1.65.317,3.864-.111,0,0,.385,2.187,1.422,4.686,1.039-2.498,1.422-4.686,1.422-4.686,2.215.428,3.864.111,3.864.111-4.947-3-4.887-11.394-4.865-12.354Z"/>
            </g>
            <g>
              <path d="M115.157,201.635l1.604-1.903-2.025-2.403-2.023,2.403,1.602,1.903c.024.96.086,9.354-4.865,12.354,0,0,1.65.316,3.866-.111,0,0,.382,2.187,1.42,4.686,1.04-2.498,1.424-4.686,1.424-4.686,2.213.428,3.862.111,3.862.111-4.947-3-4.887-11.394-4.865-12.354Z"/>
              <path d="M91.602,201.635l1.604-1.903-2.025-2.403-2.023,2.403,1.602,1.903c.024.96.086,9.354-4.865,12.354,0,0,1.65.316,3.864-.111,0,0,.385,2.187,1.422,4.686,1.039-2.498,1.422-4.686,1.422-4.686,2.215.428,3.864.111,3.864.111-4.947-3-4.887-11.394-4.865-12.354Z"/>
            </g>
          </g>
          <g>
            <path d="M103.381,37.714l1.6-1.905-2.023-2.403-2.023,2.403,1.604,1.905c.022.958.082,9.352-4.867,12.353,0,0,1.65.315,3.864-.11,0,0,.385,2.187,1.422,4.684,1.037-2.497,1.422-4.684,1.422-4.684,2.215.426,3.866.11,3.866.11-4.951-3.001-4.891-11.395-4.865-12.353Z"/>
            <g>
              <path d="M115.157,16.27l1.604-1.905-2.025-2.403-2.023,2.403,1.602,1.905c.024.958.086,9.352-4.865,12.353,0,0,1.65.316,3.866-.111,0,0,.382,2.187,1.42,4.685,1.04-2.498,1.424-4.685,1.424-4.685,2.213.428,3.862.111,3.862.111-4.947-3.001-4.887-11.395-4.865-12.353Z"/>
              <path d="M91.602,16.27l1.604-1.905-2.025-2.403-2.023,2.403,1.602,1.905c.024.958.086,9.352-4.865,12.353,0,0,1.65.316,3.864-.111,0,0,.385,2.187,1.422,4.685,1.039-2.498,1.422-4.685,1.422-4.685,2.215.428,3.864.111,3.864.111-4.947-3.001-4.887-11.395-4.865-12.353Z"/>
            </g>
            <g>
              <path d="M115.157,59.156l1.604-1.904-2.025-2.403-2.023,2.403,1.602,1.904c.024.959.086,9.352-4.865,12.353,0,0,1.65.315,3.866-.11,0,0,.382,2.188,1.42,4.684,1.04-2.496,1.424-4.684,1.424-4.684,2.213.426,3.862.11,3.862.11-4.947-3.002-4.887-11.394-4.865-12.353Z"/>
              <path d="M91.602,59.156l1.604-1.904-2.025-2.403-2.023,2.403,1.602,1.904c.024.959.086,9.352-4.865,12.353,0,0,1.65.315,3.864-.11,0,0,.385,2.188,1.422,4.684,1.039-2.496,1.422-4.684,1.422-4.684,2.215.426,3.864.11,3.864.11-4.947-3.002-4.887-11.394-4.865-12.353Z"/>
            </g>
          </g>
        </g>
        <g id="Lions_guardant">
          <g id="Lion_bottom_right">
            <path d="M180.89,166.656c1.145,1.516,2.753,2.504,4.077,2.504.407,0,1.116-.104,1.771-.268.359-.092.649-.13.873-.13.321,0,.454.12.454.414,0,.226-.155.789-.339,1.232-.205.495-.339.891-.392,1.182l-.26,1.378-.662,1.181-.918.855-.263.269v.883c0,1.608-.475,2.516-1.775,3.387-.106.064-.264.176-.46.327l-.133.533c-.292,1.216-.509,1.983-.656,2.293-.165.351-.587.965-1.249,1.843-.796,1.041-1.314,1.889-1.642,2.694-.271.661-.476.849-.907.849-.648,0-1.287-.811-1.398-1.769-.144.198-.255.331-.328.397l-.783.523-1.257.851c-.548.382-.902.643-1.046.787l-.724.727c-.127.128-.26.198-.378.198-.331,0-.677-.563-1.003-1.649l-.657-2.161c-.178-.581-.266-1.298-.266-2.125,0-1.09.072-1.476.463-2.349-1.316.138-1.685.216-2.365.465-.204.072-.458.128-.572.128-.219,0-.351-.15-.351-.405,0-.144.115-.599.26-.975l.858-2.231c.667-1.734,2.803-3.313,4.504-3.313.404,0,.964.116,1.677.352.429.14.771.208.993.208.763,0,1.372-.561,1.372-1.256,0-.351-.232-.727-.527-.857-.108-.056-.899-.294-2.362-.725-1.108-.327-1.655-.735-2.896-2.173-.901-1.042-1.254-1.336-1.582-1.336-.252,0-.388.164-.388.463l.062.873.023.407c0,1.825-.545,3.569-1.862,5.975l-1.843,3.347c-.874,1.592-1.246,2.8-1.246,4.012,0,1.324.569,2.496,1.31,2.698l.99.258c.122.038.238.102.327.204.126.13.203.268.203.377,0,.14-.121.362-.332.609-.117.126-.51.637-1.188,1.508-1.134,1.48-1.843,2.013-3.219,2.432-.793,1.929-2.091,3.05-4.404,3.815l-.261.455c-.783,1.382-2.521,2.636-3.63,2.636h-.25c-.147,1.2-1.005,2.454-2.3,3.355-.892.619-1.399.995-1.51,1.11-.08.092-.191.288-.325.593-.297.657-.569.927-.939.927-.702,0-1.282-.657-1.689-1.911-.269.168-.466.301-.595.391-.742.531-1.161.815-1.251.853-.3.146-1.071.371-2.299.661-1.612.377-3.008,1.063-3.355,1.646l-.59.981-.271.114c-.32,0-.69-.451-.848-1.033-.363-1.364-.594-2.782-.594-3.691,0-2.336.772-3.852,3.161-6.235l-.007-.567c0-3.627,2.771-6.089,6.845-6.089l.657.018,2.234.134.209.008c1.207,0,2.324-.461,3.536-1.458,1.605-1.314,2.074-2.121,2.074-3.595,0-.467-.13-1.002-.631-2.648-.323-1.088-.484-2.105-.484-3.091,0-2.714,1.991-6.089,4.697-7.953.696-.487,1.214-1.12,1.214-1.49,0-.152-.081-.274-.184-.274-.173,0-.471.18-.835.513-.316.286-.847.621-1.579.992l-1.049.523-1.184.465c-.363.136-.546.338-.546.585,0,.146.056.351.153.597.084.214.131.378.131.481,0,.146-.113.411-.333.765l-.915,1.512c-.902,1.482-1.551,2.115-2.7,2.628-.738,2.165-1.796,3.263-3.347,3.489-1.241,2.502-2.338,3.369-4.538,3.611-.304.965-.832,1.761-1.97,3.026-.47.511-.757.865-.853,1.054-.515.921-.561.983-.798.983-.3,0-.989-.453-1.507-.983-.235-.25-.435-.511-.59-.793l-.594-1.047c-.191-.342-.389-.495-.634-.495l-.419.026-1.446.202c-.907.122-2.199.871-2.631,1.512l-.789,1.186c-.082.12-.196.194-.314.194-.591,0-.949-1.296-.949-3.447,0-1.889.289-3.143.938-4.046l1.841-2.564c.255-.357.396-.711.396-1.002,0-.292-.116-.589-.327-.843-.392-.461-.764-.743-1.053-.791l-1.381-.188c-.248-.04-.349-.1-.349-.206,0-.118.073-.274.215-.453.453-.571,1.014-1.064,1.644-1.45,1.628-.995,2.699-1.388,3.795-1.388,1.114,0,2.327.401,3.439,1.128l1.905,1.246c.268.18.585.272.918.272.881,0,1.546-.523,2.166-1.714.605-1.146.868-2.071.868-3.047,0-2.472-1.765-4.25-4.214-4.25-1.139,0-2.305.445-3.42,1.314-.338.26-.559.507-.659.723l-.525,1.186c-.121.282-.313.457-.471.457-.33,0-1.076-.949-1.698-2.169-.323-.639-.639-1.428-.918-2.369-.391-1.284-.561-2.249-.561-3.277l.098-1.781c-.894-1.396-1.189-2.414-1.189-4.07,0-.601.09-1.063.466-2.309-.551-.911-.722-1.598-.722-2.928l.062-.823.196-.915.132-.787c-.633-.827-.814-1.386-1.447-4.27-.347-1.632-.567-2.343-.845-2.764-.133-.186-.202-.326-.202-.395,0-.382.915-.731,1.967-.731l.925.072c-.232-.609-.278-.845-.278-1.326,0-.811.165-1.717.476-2.618.347-1.004.419-1.282.419-1.61,0-.777-.119-1.57-.287-2.003l-.524-1.314c-.119-.298-.171-.503-.171-.679,0-.134.088-.18.328-.18,1.29,0,3.754,1.394,5.687,3.221,1.924,1.819,2.55,3.285,2.55,5.991l-.112,1.44c1.789,1.57,2.571,2.868,2.571,4.274,0,1.03-.334,1.714-1.324,2.686-1.772,1.764-2.172,2.686-2.172,4.955,0,3.491,1.042,5.376,2.968,5.376,1.695,0,2.998-1.837,3.214-4.535l.196-2.502c.052-.649.163-1.436.328-2.365.111-.593.201-1.382.201-1.715,0-.887-.581-2.005-2.303-4.01-1.843-2.161-2.47-3.321-2.47-5.005,0-2.023,1.397-3.501,3.297-3.501.47,0,.708.07,1.275.36.028-1.144.08-1.356.726-2.964.512-1.264,1.058-2.163,1.316-2.163.083,0,.224.094.391.264.284.28.572.521.858.717.404.282.618.433.657.463.144.118.342.319.589.595.409-1.47.83-2.167,2.04-3.355.92-.901,1.262-1.182,1.44-1.182.14,0,.307.122.469.329l.788,1.046,1.114,1.254c.428.473.582.887.791,2.033l.655-.391,1.048-.591c.199-.108.461-.282.796-.529.179-.128.326-.204.413-.204.109,0,.233.192.308.471l.39,1.51.859,1.712c.255.509.331.905.331,1.691l-.002.411.441-.014c1.293,0,2.412,1.532,2.412,3.297,0,2.343-1.866,5.37-4.299,6.972-.224.791-.277,1.11-.277,1.746,0,5.228,1.375,6.325,9.411,7.523,2.011.302,3.814.671,5.39,1.115.261.078,1.996.645,5.197,1.713,1.776.593,2.97.855,3.894.855.977,0,1.52-.282,1.52-.797,0-.897-1.317-1.702-5.347-3.281l-5.72-2.233c-5.815-2.275-8.56-5.824-8.56-11.048,0-6.085,4.564-10.651,10.659-10.651,2.297,0,4.537.477,7.763,1.65,4.151,1.512,4.36,1.576,4.814,1.576.801,0,1.241-.547,1.364-1.706.104-.986.371-1.386.913-1.386.806,0,1.683.749,2.308,1.977.541,1.068.853,2.313.853,3.411,0,2.169-1.14,3.591-3.219,4.012-1.391,1.821-3.152,2.724-5.295,2.724-2.619,0-3.917-.519-8.384-3.311-1.597-1.006-2.28-1.248-3.454-1.248-1.566,0-2.728.971-2.728,2.289,0,1.204.973,1.995,3.16,2.576,1.303.341,1.492.439,2.17,1.112.529-.124.764-.16,1.093-.16,2.136,0,4.768,1.152,6.993,3.056,4.054,1.252,7.655,5.62,7.655,9.289,0,4.054-3.513,7.685-7.441,7.685-1.057,0-3.172-.333-5.079-.805"/>
            <path class="cls-3" d="M178.521,184.864l.264-.723.266-.925c.05-.166.295-.541.721-1.11.668-.879,1.006-1.981,1.006-3.269,0-.407-.103-.783-.348-1.272-.129-.258-.2-.465-.2-.609,0-.09.049-.194.137-.306.081-.116.176-.184.264-.196l.041-.008c.168,0,.453.194.677.463.28.339.525.529.67.529.297,0,.608-.501.778-1.248.09-.401.132-.615.132-.659,0-.319-.266-1.144-.592-1.841-.127-.264-.189-.489-.189-.667,0-.234.155-.425.362-.425.191,0,.504.204.873.561.181.174.36.266.5.266.411,0,.708-.421,1.018-1.448.191-.637.263-.922.263-1.028,0-.192-.083-.305-.233-.305l-.229.018-.779.082c-1.2,0-2.895-.827-3.691-1.787l-1.841-2.235c-.709-.863-1.701-2.173-1.641-2.173l-1.515-.986c-.245-.162-.392-.36-.392-.535,0-.248.248-.412.626-.412.348,0,1.424.383,3.386,1.212,1.893.801,4.874,1.456,6.663,1.456,3.144,0,5.733-2.544,5.733-5.628,0-1.688-.754-3.247-2.603-5.424-.346-.409-.94-.807-1.215-.807-.215,0-.364.16-.364.389,0,.18.07.435.201.741.083.206.127.415.127.603,0,.3-.111.475-.314.475-.413,0-.845-.677-1.197-1.861-.435-1.468-1.293-2.34-3.292-3.353-.76-.392-1.758-.741-2.078-.741-.129,0-.216.114-.216.288,0,.248.092.515.26.779.289.443.474.871.53,1.254l.002.06c0,.256-.131.398-.366.398-.424,0-.517-.11-1.478-1.58-.495-.755-1.818-1.754-2.96-2.235-.36-.154-.74-.244-1.118-.266l-.038-.002c-.238,0-.422.114-.422.258,0,.052.103.264.294.603l.099.37c0,.202-.135.357-.31.357-.394,0-1.616-1.001-2.58-2.107-1.044-1.206-1.711-2.734-1.711-3.936,0-2.514,2.401-4.749,5.089-4.749.678,0,1.252.12,1.683.337l2.298,1.182,2.699,1.781c1.551,1.015,3.676,1.779,4.961,1.779.481,0,.84-.066,2.071-.409.646-.174,1.045-.431,1.045-.665l-.026-.054-.228-.132-1.447-.124c-.804-.082-2.629-.903-4.074-1.851l-3.025-1.967-2.694-1.122c-.204-.08-.336-.214-.336-.345,0-.136.14-.25.308-.25.002,0,.255.052.747.134l2.498.727c.631.178,1.639.641,3.026,1.378,2.741,1.458,4.528,2.103,5.84,2.103,1.52,0,2.637-1.044,2.637-2.46,0-.475-.106-1.252-.258-1.879-.08-.306-.214-.597-.398-.855-.115-.166-.237-.258-.323-.258-.189,0-.297.198-.297.535l.031.451.026.382c0,1.214-.474,1.641-1.813,1.641-1.094,0-2.559-.439-5.905-1.765-3.132-1.232-5.091-1.706-7.037-1.706-4.951,0-9.286,4.038-9.286,8.643,0,3.976,2.643,7.02,8.041,9.239l5.584,2.299c4.623,1.899,6.321,3.263,6.321,5.059,0,1.498-1.396,2.462-3.568,2.462-.938,0-2.107-.258-4.262-.947-5.231-1.666-8.631-2.357-11.624-2.357-4.878,0-8.35,1.334-11.121,4.264-.367.387-.583.505-.905.505-.222,0-.447-.088-.938-.374-.497-.29-1.049-.473-1.443-.473-.481,0-1.228.413-1.579.869l-.657.853c-.191.25-.406.4-.581.4-.476,0-1.319-.811-1.85-1.78-.324-.591-.545-1.168-.656-1.711-.085-.415-.136-1.088-.136-1.803l.066-1.222.199-1.31c.095-.631.166-1.01.199-1.12.049-.158.176-.26.315-.26.341,0,.491.31.491,1.029l-.018.415-.013.296c0,1.871.742,3.585,1.557,3.585.641,0,1.207-1.15,1.677-3.425.095-.457.279-.721.502-.721.263,0,.421.336.618,1.316.121.637.538,1.52.984,2.103.255.33.528.529.75.529.538,0,.884-.807,1.153-2.698.109-.735.325-1.192.579-1.192.107,0,.207.054.276.142.047.052.199.294.464.723.159.27.411.491.721.655.327.17.592.264.763.264.208,0,.429-.098.615-.264.294-.262.46-.461.46-.539,0-.096-.134-.303-.392-.579-.432-.463-.765-1.084-1.182-2.173-.276-.721-.471-1.218-.589-1.508-.103-.24-.217-.399-.332-.459l-.209-.054-.386.054c-.074.018-.535.15-1.377.389l-.429.068c-.186,0-.307-.122-.307-.313,0-.176.235-.495.54-.735,1.662-1.324,2.653-3.543,3.022-6.772.224-1.963.479-2.708,1.313-3.88.176-.244.328-.393.412-.393.256,0,.396.198.396.579,0,.254-.073.571-.214.933-.093.252-.143.523-.143.797l.011.25.132.398.724-.266.785-.915c.471-.545.864-1.783.864-2.694,0-.629-.153-1.07-.528-1.514-.416-.493-.704-.691-1-.691l-.449.032-.466.034c-.424,0-.636-.128-.636-.389l.113-.501.07-.723-.392-1.64-.329-.793-.201-.657-.461.328-.985.589c-.255.154-.522.401-.791.725-.933,1.134-.992,1.188-1.367,1.188-.238,0-.375-.086-.375-.25l.036-.279c.134-.603.196-1.057.196-1.364,0-1.146-.832-2.874-1.838-3.828-1.373,1.312-2.11,2.758-2.11,4.144v.789c0,.3-.098.457-.299.457h-.023c-.163-.024-.326-.15-.464-.33l-.786-1.05c-.059-.08-.411-.365-1.056-.857-.121-.096-.3-.248-.523-.455l-.266.521c-.649,1.304-.876,2.085-.917,3.157-.031.877-.103,1.132-.308,1.132-.1,0-.242-.048-.416-.148-.997-.557-1.088-.595-1.52-.595-1.182,0-1.991.847-1.991,2.091,0,.485.274,1.222.817,2.187.6,1.073,1.507,2.055,1.9,2.055.114,0,.137-.078.137-.404l-.002-.136-.062-1.118-.134-.859-.008-.112c0-.252.098-.367.297-.367.594,0,1.115,1.74,1.556,5.214.383,3.054,1.226,5.161,2.559,6.379.339.31.536.565.536.711,0,.11-.116.21-.261.21-.193,0-.492-.118-.863-.33-.24-.138-.482-.21-.714-.21-.657,0-1.391.767-1.522,1.592l-.593,3.744-.46,5.264c-.087.996.047,2.329.393,3.942.304,1.418.463,2.464.463,3.113,0,3.94-2.453,7.058-6.512,8.26l-4.206,1.244c-2.622.779-3.911,2.506-4.271,5.718.673-.535.879-.619,1.909-.783l1.243-.196c.53-.088.907-.202,1.12-.33.118-.072.359-.319.726-.727l1.117-1.244c.422-.477.802-.745,1.034-.745.155,0,.282.174.282.379,0,.24-.163.625-.464,1.087-.309.485-.481,1.072-.481,1.692,0,.837.222,1.37,1.073,2.58.108-.398.195-.661.265-.791.109-.208.438-.669.985-1.378.91-1.178,1.564-2.408,1.574-2.962.018-1.017.108-1.348.366-1.348.22,0,.259.05.359.627.024.142.094.28.197.399.152.166.3.262.401.262.083,0,.263-.092.523-.262.452-.305.803-.615,1.047-.919.274-.34.491-.739.656-1.184.22-.577.337-.998.337-1.244l-.008-.849c0-.226.093-.409.217-.409.155,0,.492.344.706.727.145.255.235.331.421.331h.038c.238-.026.443-.122.59-.267.801-.783,1.321-1.747,1.321-2.466l-.069-1.212-.262-.994-.012-.084c0-.206.149-.379.318-.379.296,0,.623.423,1.073,1.386.209.457.403.665.599.665.313,0,.559-.234,1.177-1.128l.592-.851c.129-.188.197-.413.197-.663,0-.228-.068-.457-.197-.649l-.53-.791c-.085-.136-.131-.362-.131-.659,0-.893.324-1.905.989-3.087.484-.863.771-1.412.853-1.646.103-.272.217-.398.365-.398.114,0,.224.158.224.33l-.061.727v1.048c.087.242.248.337.566.337.201,0,.43-.05.683-.134l1.641-.593c.393-.14.897-.389,1.512-.727,2.576-1.426,3.371-1.722,4.641-1.722.757,0,1.732.294,3.118.933.284.132.515.204.677.204.192,0,.399-.122.574-.331.13-.152.194-.338.194-.501,0-.24-.09-.523-.263-.815-.209-.362-.402-.821-.402-.981,0-.178.114-.288.302-.288.15,0,.375.158.495.348.196.314.7,1.188,1.51,2.626,1.224,2.179,2.82,3.697,4.21,4.012l2.89.661c.895.202,1.123.549,1.123,1.664,0,2.041-.968,3.838-2.632,4.905l-2.368,1.518c-.86.545-1.579,2.059-1.579,3.315,0,.813.197,2.247.46,3.385l.461-.457,1.12-.659.988-.987.525-1.448.523-1.316c.258-.635.561-1.051.765-1.051.229,0,.359.358.359,1.006l-.008.18-.002.247c0,.945.127,1.36.858,2.778"/>
            <path class="cls-3" d="M139.595,203.617c0-3.129,1.135-4.493,5.663-6.79,8.933-4.531,13.751-8.687,13.751-11.843,0-.637-.208-1.57-.798-3.541-.362-1.214-.566-2.229-.566-2.854,0-1.456,1.197-3.661,2.737-5.029l1.247-1.118c.685-.615,1.194-1.5,1.194-2.075l-.01-.296-.018-.391c0-.649.253-.893.935-.923l.593-.06c.299-.094.476-.136.506-.136.212,0,.419.124.551.331l.323.527.461.521c.149.17.305.268.422.268.082,0,.26-.066.501-.194.315-.176.562-.25.796-.25.345,0,.518.184.518.567,0,1.32-.856,3.229-2.368,5.266-2.521,3.415-3.35,5.252-3.35,7.439,0,1.714.491,3.219,1.447,4.461.168.226.265.395.265.485,0,.176-.163.471-.461.829-.114.138-.248.311-.398.529-.524.755-.873,1.054-1.22,1.054-.258,0-.504-.212-.619-.533l-.262-.717c-.076-.204-.225-.338-.371-.338-.051,0-.162.108-.288.272-.171.218-.259.473-.259.721v1.118c0,.443-.162.905-.462,1.314-.253.351-.561.681-.92.983-.248.216-.431.333-.517.333-.188,0-.375-.21-.469-.527l-.398-1.316c-.057-.192-.189-.327-.329-.327-.219,0-.405.37-.462.923-.134,1.49-.392,2.393-.783,2.76l-.923.847c-.297.284-.644.483-.832.483-.191,0-.355-.084-.417-.216l-.462-.989c-.055-.12-.166-.202-.29-.202-.266,0-.462.523-.561,1.518-.237,2.362-.732,3.427-2.037,4.34-1.023.727-1.246.965-1.641,1.843-.575-.847-.796-1.564-.796-2.624,0-.545.087-.943.27-1.25.274-.493.425-.869.425-1.092,0-.162-.104-.29-.235-.29-.06,0-.178.092-.326.258-.185.216-.473.435-.853.661-1.181.681-1.359.925-1.644,2.235-.379,1.769-1.223,2.588-3.019,2.95-2.226.457-2.36.513-3.16,1.254l-.077-1.166Z"/>
            <path class="cls-3" d="M135.335,135.825v.659l.008.973c0,.349-.032.595-.141,1.066-.211.913-.262,1.228-.262,1.486,0,1.258.175,1.879.917,3.175.412.719.678,1.584.678,2.209,0,.264-.107.421-.288.421-.11,0-.234-.066-.32-.19l-.525-.727c-.421-.577-.816-.729-1.885-.729l-1.14.072c.456,1.122.603,1.548.788,2.299.533,2.147.608,2.303,1.777,3.355,1.172,1.06,1.283,1.194,1.283,1.574,0,.298-.204.531-.453.531l-.437-.068-.258-.026c-.357,0-.686.657-.686,1.39,0,.421.168,1.087.42,1.658.162.386.321.655.457.793l.659.655c.169.164.266.411.266.673,0,.321-.185.587-.4.587-.133,0-.335-.078-.591-.212-.165-.082-.32-.13-.462-.13-.292,0-.435.18-.435.541l.106.977.398,1.702c.087.385.331.811.72,1.256.337.381.676.645.987.787.829.358,1.271.561,1.318.593.124.092.194.286.194.525,0,.246-.194.459-.438.459-.072,0-.3-.048-.68-.132l-.667-.064c-.669,0-.714.036-.714.553,0,.33.045.677.133,1.021l.263,1.052c.28,1.112.639,1.715,1.034,1.715.085,0,.251-.098.476-.266.951-.729,2.862-1.38,4.062-1.38,1.233,0,2.642.15,3.172.328.3.104.515.16.629.16.162,0,.214-.162.224-.747l.135-1.184.263-2.039.194-1.512v-.857c-.241.196-.413.353-.531.461-1.117,1.049-1.821,1.378-2.976,1.378-3.024,0-4.759-3.397-4.759-9.326,0-2.446.359-5.905,1.034-9.87.142-.833.206-1.414.206-1.823,0-2.161-1.368-4.274-3.755-5.8"/>
            <path class="cls-3" d="M139.804,150.55l.591-.587.591-.529c.492-.43.885-1.346.885-2.021,0-.31-.065-.601-.225-.935-.228-.493-.668-.933-.933-.933-.224,0-.425.541-.512,1.39l-.134.987-.194.985-.068.986v.657Z"/>
            <path class="cls-3" d="M134.018,177.439c.675.248.815.361,1.51,1.182.912,1.06,1.417,1.312,2.627,1.312.327,0,.638-.042.93-.126l.848-.264.657-.202c.314-.086.527-.226.527-.333,0-.138-.517-.575-1.314-1.109-.527-.359-1.055-.667-1.576-.921-.569-.279-1.039-.409-1.507-.409-.925,0-1.817.286-2.702.871"/>
            <path class="cls-3" d="M142.893,195.94c0-2.121,2.087-3.863,4.631-3.863,1.272,0,2.012.254,2.012.687,0,.337-.561.793-1.776,1.438-.119.06-.75.406-1.908,1.054-1.323.729-1.732.933-2.893,1.444l-.065-.759Z"/>
            <path class="cls-3" d="M169.649,179.997c.933-.19,1.246-.433,1.708-.451l1.184.06c.145-.05.411-.234.786-.527.211-.164.52-.38.92-.655,1.316-.897,1.386-.957,1.386-1.242,0-.366-.533-.543-1.642-.543-2.071,0-3.333.971-4.343,3.357"/>
            <path d="M149.794,139.969l.923.593c.524.335.963.577,1.313.719,1.016.419,1.383.567,1.383.957,0,.144-.042.491-.132.749-.101.296-.165.605-.196.923-.093.893-.636,1.12-.992,1.12-.443,0-.907-.687-1.639-1.973-.326-.585-.796-1.755-1.049-2.626l-.039-.256c0-.16.098-.254.282-.254l.147.048Z"/>
            <path d="M158.669,142.26l-1.51,1.52c-.535.711-.535,1.326-.656,1.446-.101.092-.258.166-.464.196l-.097.008c-.382,0-.67-.276-.691-.663l-.061-1.118-.07-1.122v-.066c0-.433.237-.657.581-.729l1.397-.387,1.44-.727c.42-.204.55-.261.623-.261.167,0,.309.174.309.381,0,.094-.051.236-.142.413l-.659,1.108Z"/>
            <path d="M152.031,146.733l.985.729c.245.144.551.222.882.222.399,0,.994-.158,1.551-.421l.857-.391c.197-.09.371-.14.51-.14.528,0,.941.555.941,1.254,0,.971-.701,1.967-1.717,3.415l-.718,1.518c-.575.821-.954,1.118-1.424,1.118-.781,0-1.159-.445-2.327-2.768-.842-1.66-1.184-2.678-1.184-3.485,0-.695.361-1.178.881-1.178.214,0,.476-.052.763.126"/>
            <path class="cls-3" d="M152.889,150.356l.065,1.252c.028.565.501,1.126.955,1.126.606,0,1.037-.917,1.275-2.307.111-.637.15-.739.15-.913,0-.483-.162-.615-.783-.615l-.346.012h-.463l-.294-.012c-.411,0-.57.322-.57,1.158l.011.3Z"/>
          </g>
          <g id="Lion_bottom_left">
            <path d="M66.51,167.639c.574,1.448.768,2.163.853,3.097l.129,2.756c.106,2.766,1.021,4.14,2.761,4.14.631,0,1.153-.164,1.447-.459l.724-.721.288-.084c.461,0,.713.301.713.855l-.079,1.07c-.052.479.033,1.498.263,3.018.134.896.198,1.781.198,2.654,0,1.404-.1,1.941-.595,3.203.458,1.292.724,2.75.724,3.97,0,1.43-.234,2.392-.788,3.197.261,1.13.328,1.586.328,2.233s-.09,1.486-.264,2.502c-.234,1.368-.322,2.43-.265,3.147l.008.17c0,.415-.124.619-.379.619-.246,0-.547-.194-.81-.523-.401-.515-.659-.701-.965-.701-.452,0-.595.24-1.272,2.211-.206.611-.739,1.434-1.574,2.438-.654.781-1.062,1.428-1.184,1.907-.209.787-.341,1.244-.392,1.38-.076.174-.228.307-.398.325l-.083.006c-1.084,0-2.323-2.321-3.596-6.706-.356-1.242-.816-1.793-1.486-1.793-.474,0-.961.316-1.145.739l-.394.921c-.07.156-.204.264-.346.264-.525,0-1.326-.96-1.823-2.173-.409-1.003-.641-2.093-.641-3.024,0-2.059,1.517-3.595,6.096-6.181,1.996-1.12,2.766-2.548,2.766-5.121,0-2.039-.613-3.209-2.367-4.541-1.389-1.049-2.19-1.45-2.929-1.45-.623,0-1.115.417-1.115.943,0,.617.36.994,1.218,1.29,1.008.363,1.45.719,1.45,1.174,0,.417-.429,1.314-1.122,2.38-.745,1.138-1.068,1.468-2.104,2.173-.313,1.809-1.164,2.964-3.157,4.272-.401,1.134-.623,1.536-1.316,2.432l-1.381,1.779c-.432.549-.914,1.55-.984,2.037-.145.999-.24,1.182-.624,1.182-.522,0-1.594-.927-2.665-2.299-.636-.819-.789-1.198-.853-2.173-.688.541-.899.611-2.236.785-.801.114-1.401.262-1.774.469-1.013.529-1.337.673-1.522.673-.273,0-.365-.144-.386-.609l-.067-1.452c0-1.983.783-4.302,1.975-5.847-1.151-.999-2.3-1.606-3.221-1.71-.39-.042-.492-.092-.492-.234,0-.242.256-.757.621-1.214.491-.619.886-1.058,1.184-1.312.933-.797,2.547-1.382,3.813-1.382.855,0,2.114.315,3.745.923.585.222,1.115.326,1.569.326.724,0,1.133-.469,1.133-1.296,0-1.194-.587-3.062-1.916-6.069-.895-2.033-1.298-3.397-1.298-4.336,0-2.279,1.075-4.645,2.419-5.322-.636-.321-.917-.4-1.465-.4-.657,0-1.177.168-2.022.663-.974.567-1.515,1.068-1.515,1.402,0,.128.202.333.533.571.512.357.597.489.597.971,0,1.622-1.344,3.793-3.226,5.208-.413,2.301-1.476,3.693-3.552,4.667-.271,1.252-.443,1.614-1.445,3.026-1.716,2.407-2.118,3.173-2.43,4.535-.163.705-.323.999-.543.999-.279,0-.858-.439-1.494-1.132-.554-.603-.9-1.015-1.053-1.258-.281-.431-.423-.851-.721-2.097-.479.134-.605.158-.941.158l-.966-.026-.657-.018c-1.44,0-2.967.327-3.749.803-.284.176-.479.264-.572.264-.423,0-.768-.891-.768-1.993,0-2.371.657-4.336,2.196-6.483-.565-.471-.75-.649-1.252-1.182-.217-.242-.394-.396-.525-.465l-.722-.395c-.25-.132-.397-.298-.397-.429,0-.349.962-1.266,2.104-2.003,1.264-.815,2.265-1.186,3.184-1.186,1.076,0,1.651.276,2.995,1.448.933.815,1.569,1.186,2.022,1.186.318,0,.667-.22.935-.597.22-.303.339-.639.339-.978,0-1.258-1.502-3.379-3.165-4.477-1.239-.813-2.596-1.25-3.917-1.25-1.831,0-3.402.911-4.101,2.37l-.726,1.512c-.17.353-.382.535-.625.535-.422,0-.644-.19-2.136-1.915l-1.706-1.977c-.528-.605-.882-1.188-1.055-1.702-.155-.487-.264-.779-.329-.855-.059-.088-.284-.264-.654-.531-1.318-.933-2.28-2.782-2.83-5.452-.042-.192-.104-.481-.197-.853-1.611-1.975-2.57-4.418-2.57-6.538,0-.282.016-.409.143-.897-.939-.943-1.044-1.168-1.779-3.685-.526-1.787-.859-2.548-1.513-3.409-.173-.232-.263-.411-.263-.511,0-.355.551-.649,1.512-.807.899-.148.956-.152,1.321-.152l1.311.088-.083-1.801c0-1.058.083-1.744.347-2.998.126-.627.195-1.084.195-1.372,0-.116-.044-.497-.134-1.13-.069-.485-.132-.817-.194-.984-.097-.246-.141-.435-.141-.557,0-.214.141-.326.393-.326.188,0,.458.092.866.288,1.143.563,2.089,1.138,2.823,1.71,2.266,1.777,4.049,4.506,4.049,6.199l-.034.515c-.091.585-.135.912-.135.962,0,.288.163.665.461,1.066l.724.991c.641.873,1.057,1.895,1.057,2.578,0,.615-.129.885-1.187,2.42-.796,1.148-1.125,2.003-1.125,2.94,0,1.186.473,2.68,1.321,4.16.773,1.362,1.667,2.111,2.526,2.111,1.468,0,2.105-1.298,2.336-4.811.119-1.827.298-3.471.529-4.991l.066-.899c0-.411-.126-.649-.656-1.28l-1.978-2.293c-1.88-2.195-2.446-3.325-2.446-4.903,0-1.806,1.187-3.058,2.908-3.058l.788.072-.008-.513c0-.419.112-1.015.336-1.787.412-1.412.933-2.496,1.205-2.496.088,0,.305.106.636.329.103.064.502.22,1.187.457.366.134.626.264,1.308.653.318-1.128.554-1.65,1.056-2.297.848-1.096,1.813-1.971,2.153-1.971.204,0,.587.28,1.064.789l1.252,1.318c.206.212.453.641.724,1.246l.263.589c.349-.2.61-.353.788-.455.51-.308.866-.507,1.05-.593.801-.38,1.218-.577,1.251-.593.338-.22.574-.339.675-.339.219,0,.344.395.835,2.572.335,1.49.382,1.806.463,2.896,2.099.294,3.086,1.498,3.086,3.751,0,2.121-1.04,4.226-3.284,6.626-.613.661-.76.972-.76,1.586,0,5.81,2.023,7.647,9.308,8.414,4.47.469,5.798.753,11.171,2.37,2.828.843,4.451,1.196,5.499,1.196,1.238,0,1.936-.453,1.936-1.252,0-1.22-.881-1.602-6.117-2.71-12.18-2.564-16.965-6.724-16.965-14.759,0-5.728,4.284-10.027,10.002-10.027,2.521,0,4.775.769,8.34,2.824,3.307,1.919,3.992,2.245,4.749,2.245.884,0,1.234-.567,1.234-1.991,0-.919.278-1.37.853-1.37.524,0,1.323.543,2.039,1.382,1.09,1.292,1.512,1.951,1.512,3.733,0,2.38-1.267,3.934-3.746,4.621-.266.29-.463.503-.59.653-1.352,1.528-2.544,2.037-4.697,2.037-1.87,0-4.219-.763-5.827-1.907l-3.155-2.231c-1.362-.968-2.357-1.378-3.311-1.378-1.345,0-2.148.803-2.148,2.151,0,1.322.873,2.397,2.304,2.84l2.962.923c1.047.331,1.546.533,2.823,1.182.732-.106,1.067-.14,1.474-.14,1.838,0,3.821.495,5.558,1.384.553.284.951.465,1.184.533l1.647.461c3.732,1.046,6.775,5.22,6.775,9.298,0,4.651-3.014,7.533-7.884,7.533l-1.52-.072Z"/>
            <path class="cls-3" d="M65.39,206.692l.393-.793.923-.987c.777-.831,1.196-2.013,1.196-3.397,0-.677-.118-1.408-.343-2.125-.166-.525-.272-.973-.272-1.16,0-.417.31-.809.629-.809.131,0,.309.116.496.331l.984,1.114c.613.691.817.819,1.58.988l.067-.919.065-1.079c0-1.571-.575-3.333-1.448-4.445-.522-.665-.76-1.076-.76-1.308,0-.242.173-.467.356-.467.065,0,.16.05.271.132.634.473.961.667,1.135.667.318,0,.605-.793.605-1.661,0-1.246-.522-2.68-1.341-3.673-.422-.509-.686-.835-.788-.983-.091-.126-.132-.251-.132-.377,0-.282.23-.483.569-.483.248,0,.401.064.811.33.194.126.372.196.505.196.512,0,.697-.721.697-2.674l-.02-.809-.067-1.186c-.075-1.39-.197-1.636-.786-1.636h-.525c-3.208,0-4.7-2.031-5.527-7.501-.595-3.952-2.071-6.76-3.878-7.365-1.08-.358-1.468-.595-1.468-.881,0-.182.299-.363.625-.363.235,0,.791.146,1.241.331,2.619,1.057,4.832,1.576,6.756,1.576,3.149,0,5.633-2.317,5.633-5.258,0-2.245-1.068-4.531-2.991-6.377-.523-.513-1.092-.845-1.642-.987l-.126-.01-.333.11.135.949.258.663.072.274c0,.14-.135.25-.31.25-.193,0-.373-.1-.484-.267l-1.182-1.776c-.937-1.402-2.993-2.574-4.516-2.574-.541,0-.882.24-.882.623,0,.186.179.525.401.769.334.381.598.835.598,1.05l-.073.265c-.069.148-.165.25-.262.262l-.065.006c-.318,0-.474-.144-1.906-1.776-1.171-1.34-3.562-2.642-4.845-2.642-.183,0-.353.08-.483.208-.08.086-.132.182-.132.252,0,.202.173.463.463.733.407.375.731.817.731,1.008,0,.13-.172.246-.37.246-.374,0-1.22-.545-2.794-1.781-2.454-1.925-3.547-3.746-3.547-5.853,0-2.544,1.813-4.537,4.139-4.537,1.362,0,3.17.655,4.405,1.582l3.222,2.428c1.473,1.121,3.281,1.714,5.173,1.714.412,0,.799-.092,1.138-.266.287-.144.463-.317.463-.441,0-.078-.245-.194-.595-.285-1.163-.276-2.099-.679-2.761-1.182l-3.286-2.494c-1.22-.927-2.073-1.52-2.567-1.777-1.732-.911-2.071-1.126-2.071-1.326,0-.102.165-.188.377-.188.176,0,.374.044.577.132l1.712.727c.549.228,1.471.779,2.761,1.642,3.519,2.351,5.308,3.105,7.374,3.105,1.965,0,3.415-1.394,3.415-3.289,0-.373-.095-.785-.274-1.136l-.328-.653c-.115-.234-.327-.411-.392-.33l-.196.262-.196,1.384c-.008.052-.078.212-.201.461-.124.258-.279.483-.456.655-.359.351-.657.464-1.208.464-1.016,0-2.158-.545-5.235-2.505-3.113-1.981-5.923-3.016-8.151-3.016-4.731,0-8.546,3.809-8.546,8.529,0,6.581,4.015,9.556,16.627,12.306,4.799,1.043,6.906,2.45,6.906,4.583,0,1.949-1.572,3.175-4.072,3.175-.755,0-1.35-.044-1.779-.13-.424-.088-2.682-.701-6.774-1.847-2.82-.781-5.983-1.224-8.774-1.224-4.948,0-8.281,1.47-10.55,4.647-.264.377-.525.597-.699.597-.134,0-.331-.092-.551-.266l-.917-.725c-.649-.507-1.674-.899-2.36-.899-.499,0-.971.198-1.391.575-.325.296-.569.455-.669.455-.37,0-1.044-.825-1.561-1.903-.738-1.54-1.122-3.072-1.122-4.474,0-.657.207-1.114.497-1.114.227,0,.4.174.494.523l.525,1.907c.294,1.068.889,1.907,1.342,1.907.201,0,.556-.289.956-.787.245-.3.421-.613.53-.923.412-1.204.512-1.378.835-1.378.385,0,.582.236.84,1.44.052.222.124.555.43,1.128.266.497.532.899.788,1.182.196.214.445.337.68.337.577,0,1.109-.965,1.109-2.029l-.012-.28-.08-1.22c0-.473.074-.615.339-.615.155,0,.273.082.46.32.282.363.662.677,1.12.919.4.218.721.33.935.33.191,0,.419-.122.639-.33.178-.166.276-.353.276-.515,0-.194-.235-.493-.933-1.192-.372-.379-.822-1.278-1.315-2.626-.184-.517-.433-.867-.619-.867-.051,0-.201.048-.432.14l-.853.324-.592.262-.224.048c-.28,0-.505-.2-.505-.451,0-.254.597-.961,1.321-1.562.52-.437.833-1.083.853-1.774.042-1.106.245-1.977.46-1.977l.199-2.299c.093-1.154.572-3.335.985-4.531.08-.242.186-.405.263-.405.183,0,.348.497.348,1.044l-.02.34-.038.665c0,.833.134,1.264.393,1.264.286,0,.61-.414.897-1.14l.589-1.51c.173-.447.264-.861.264-1.228,0-1.278-.766-2.207-1.829-2.207l-.476.082c-.252.088-.411.132-.465.132-.346,0-.637-.381-.637-.827l.05-.947-.062-1.316-.264-1.378-.069-.661-.59.326-.726.593-1.047.851-.856.725c-.151.13-.322.202-.488.202-.502,0-.564-.136-.564-1.16v-.256c0-.829-.359-1.476-1.706-3.056-.077-.092-.186-.216-.333-.395l-.258.463-.724,1.182-.723,1.838-.135,1.182c-.033.339-.165.603-.296.603-.135,0-.363-.172-.619-.471-1.004-1.15-1.323-1.358-2.828-1.903l-.129.457c-.24.779-.372,1.24-.395,1.386l-.07,1.246v.525l.006.419c0,.362-.134.577-.356.577l-.042-.01c-.023-.008-.155-.122-.393-.326-.151-.138-.432-.204-.796-.204-1.222,0-2.003.663-2.003,1.715,0,.787.268,1.374,1.481,3.219.538.819,1.159,1.462,1.404,1.462.162,0,.297-.433.297-.935l-.121-.791c-.125-.376-.187-.719-.187-1.005,0-.365.106-.567.308-.567.592,0,1.202,1.704,1.458,4.076l.258,2.432c.098.865.365,1.752.791,2.63.6,1.226,1.187,2.061,1.708,2.429.631.443,1.019.88,1.019,1.122,0,.204-.167.395-.347.395-.02,0-.468-.16-1.329-.467l-.553-.078c-1.313,0-1.752.751-1.752,3.01,0,2.736,1.844,6.67,3.886,8.312l3.021,2.435c1.536,1.228,2.697,3.275,2.697,4.735,0,1.923-2.107,3.812-5.718,5.125l-2.171.783c-1.683.615-2.361,1.703-3.023,4.865.859-.264,1.237-.333,1.812-.333l.292.008.976.02c.882,0,1.521-.531,1.521-1.27v-.593c0-.178.245-.421.592-.595.589-.286.897-.437.917-.459l.727-.591c.113-.092.242-.148.366-.148.196,0,.359.19.359.409,0,.162-.049.368-.134.593-.225.581-.349,1.374-.349,2.259,0,1.61.256,2.478,1.071,3.657.075-.437.142-.719.197-.853.133-.333.511-.927,1.119-1.773.992-1.392,1.724-3.088,1.724-4.002l-.02-.278-.195-1.508c0-.274.122-.531.329-.723.143-.124.302-.192.45-.192.28,0,.454.166.673.653.155.367.341.591.468.591.23,0,.682-.603.972-1.314.219-.521.33-.991.33-1.39,0-.24-.067-.529-.196-.845-.134-.328-.209-.585-.209-.747,0-.168.054-.25.274-.435.108-.082.219-.134.333-.134.126,0,.26.052.39.134l.59.395c.201.132.379.202.527.202.266,0,.641-.296.923-.731.569-.877.93-1.598.93-1.871,0-.176-.108-.3-.473-.557-1.308-.923-2.169-2.321-2.169-3.517,0-.278.064-.593.197-.951l.656-1.777c.33-.893.51-1.358.525-1.384l.194-.072c.224,0,.36.186.36.507,0,.216-.052.467-.155.749-.16.432-.276.955-.276,1.25,0,.473.242.727.687.727.325,0,.7-.09,1.099-.262,1.991-.861,3.562-1.324,4.514-1.324.895,0,1.45.196,2.389.859.248.174.458.266.607.266.114,0,.256-.1.381-.266.082-.112.132-.228.132-.326,0-.238-.14-.545-.396-.855-.338-.417-.466-.673-.466-.929,0-.208.137-.338.354-.338,1.032,0,2.647,3.263,4.191,8.434,1.212,4.082,1.55,4.495,5.451,6.708,3.302,1.863,4.556,3.709,4.556,6.712,0,2.952-.817,6.736-2.521,11.693-.535,1.568-.77,2.63-.77,3.503,0,.695.134,1.368.646,3.135.238.843.39,1.354.457,1.512.075.194.252.521.525.987"/>
            <path class="cls-3" d="M50.14,197.489c.391-.911.515-1.126,1.246-2.239,1.066-1.604,1.448-2.455,1.448-3.217v-1.056c0-.989.178-1.446.572-1.446.141,0,.273.072.348.202l.331.523c.1.168.276.266.462.266.194,0,.549-.256.742-.551.474-.719.766-1.637.766-2.345l-.068-.725-.064-.741c0-.399.162-.571.54-.571.256,0,.363.102.583.593.139.319.332.527.496.527.18,0,.388-.146.553-.397l.523-.789.398-.595.097-.316c0-.18-.141-.349-.496-.603-1.218-.877-1.75-2.227-1.836-4.669-.072-1.851-.175-3.06-.329-3.615-.039-.124-.431-1.065-1.187-2.822-.291-.697-.558-1.48-.791-2.368-.155-.607-.343-.793-.817-.793-1.79,0-3.137,1.526-3.137,3.543,0,1.19.494,3.054,1.395,5.336,1.265,3.191,1.601,4.328,1.601,5.458,0,2.414-.964,3.465-4.297,4.663-3.766,1.35-5.53,3.291-6.179,6.77.294-.116.51-.198.657-.263.419-.172.726-.274.915-.33l1.054-.261c.904-.222,1.628-.735,1.774-1.248l.266-.917c.064-.226.193-.377.395-.461l.592-.263.592-.266.129.266-.26.855c-.091.282-.135.793-.135,1.532,0,1.438.282,2.285,1.12,3.331"/>
            <path class="cls-3" d="M14.839,136.68c.085.367.134.613.134.737,0,.206-.091.775-.266,1.696l-.116,1.334c0,1.176.209,2.43.576,3.465.336.945.421,1.244.421,1.5l-.023.276c-.06.272-.162.471-.255.471-.129,0-.364-.146-.67-.413-.755-.653-1.574-.991-2.428-.991-.276,0-.657.048-1.12.136l.328.725.984,2.438,1.384,2.099,1.439.991c.145.092.276.226.399.389.132.184.199.335.199.435,0,.12-.114.216-.261.226l-1.318.062c-.202.01-.362.132-.362.279,0,.224.191.887.562,1.957l.659,1.909,1.117,1.048,1.181.859c.349.25.559.535.559.745,0,.182-.113.363-.231.375l-.656.062c-.215.02-.336.208-.336.529,0,.491.461,1.382,1.321,2.56,1.016,1.386,1.732,1.843,2.893,1.843h.987c.471,0,.758.23.758.603,0,.308-.197.489-.631.583-.91.188-1.185.372-1.185.793,0,.168.117.419.331.717l.53.725c.434.601.928.996,1.246.996.178,0,.592-.184.959-.605.587-.677,1.262-1.228,2.13-1.442,2.283-.579,2.761-.817,2.761-1.348,0-.186-.088-.449-.261-.755-.728-1.304-.986-2.147-.986-3.219,0-.817-.212-1.39-.513-1.39-.121,0-.325.202-.54.531-.539.831-1.461,1.386-2.299,1.386-2.276,0-5.017-3.563-6.377-8.286-.315-1.094-.483-2.345-.483-3.547,0-1.236.167-2.628.483-4.016.437-1.927.68-3.002.721-3.221l.085-.891c0-1.63-1.501-3.727-3.831-5.354"/>
            <path class="cls-3" d="M19.573,145.817c-.484.917-.928,2.976-.928,4.282,0,.767.25,1.374.574,1.374.106,0,.24-.124.355-.329l.723-1.32c.124-.218.238-.449.471-.803.261-.389.456-.769.456-.976,0-.779-.72-1.743-1.649-2.229"/>
            <path class="cls-3" d="M26.803,175.466c.147.146.25.25.328.329.287.286.463.457.527.523,1.281,1.328,1.474,1.458,2.092,1.458.572,0,1.768-.327,2.444-.665.284-.144.458-.321.458-.455,0-.088-.236-.355-.655-.727l-.721-.663c-.551-.493-1.363-.956-1.75-.956-.753,0-1.528.335-2.723,1.156"/>
            <path class="cls-3" d="M42.056,187.364c.703.294.95.413,1.316.659.592.387.938.605,1.047.653.201.086.559.132,1.042.132.299,0,.574-.046.798-.132l1.386-.523,1.314-.461c.354-.126.594-.327.594-.509,0-.094-.297-.238-.727-.346-.294-.076-.627-.182-.988-.326-1.617-.655-1.854-.745-2.426-.745-1.288,0-2.586.625-3.356,1.598"/>
            <path class="cls-3" d="M58.688,200.579c.437-1.058.742-1.238,2.233-1.32,1.688-.092,3.294-3.114,3.294-5.162,0-.202-.068-.372-.155-.372-.083,0-.238.076-.445.216-.472.308-.801.505-.982.587l-1.908.851c-1.273.567-2.392,2.267-2.392,3.605,0,.449.088.829.355,1.594"/>
            <path d="M30.29,143.45l.652.923c.144.206,1.282,1.027,1.425,1.027.195,0,.306-.144.418-.569l.261-.992.07-1.096c0-.865-.379-1.194-2.174-1.658-.445-.118-.628-.1-.918-.335-.273-.216-.631-.398-.786-.398-.147,0-.27.078-.27.18l.072.29.327.981.923,1.644Z"/>
            <path d="M37.322,143.442l-.858,1.522c-.207.232-.317.354-.328.36l-.064.01c-.349,0-.701-.799-.727-1.626l-.124-1.308c.101-.541.422-.781,1.244-.923.667-.118,1.117-.247,1.318-.391.627-.449.98-.691,1.05-.727l.111-.02c.177,0,.302.124.302.322l-.021.09-.458,1.124-1.445,1.566Z"/>
            <path d="M35.611,147.922l1.052-.525c.187-.092.355-.142.5-.142.513,0,.892.379.892,1.07,0,.751-.587,1.761-1.392,3.209-.868,1.572-1.522,2.638-2.194,2.638-.943,0-2.285-1.504-3.588-4.018-.307-.587-.502-1.294-.502-1.829,0-.829.364-1.266,1.062-1.266.287,0,.554.068.753.204l.591.397c.518.338,1.102.523,1.673.523.411,0,.806-.088,1.153-.261"/>
            <path class="cls-3" d="M34.89,149.368s.607.128.607.535l-.018.188-.195.983c-.218,1.314-.518,2.123-.944,2.123-.189,0-.38-.104-.504-.278-.678-.957-1.195-2.183-1.195-2.848,0-.473.206-.711.626-.711l.108.008.727.128.788-.128Z"/>
          </g>
          <g id="Lion_top_right">
            <path d="M187.921,43.53l.266.985c.24.887.412,1.592.531,2.105.824,3.755,1.522,4.739,3.347,4.739,1.041,0,1.908-.579,2.172-1.45l.394-1.318c.09-.303.317-.475.625-.475.716,0,1.097.785,1.151,2.383.018.607.152,1.682.391,3.219.18,1.108.265,2.125.265,3.04,0,.669-.082,1.06-.393,1.889l.127.789c.222,1.296.276,1.804.276,2.413,0,2.822-.137,3.653-.801,4.751.273,1.078.347,1.584.347,2.356,0,.497-.068,1.206-.212,2.313l-.266,1.973.067,1.182c.176.435.261.705.261.787,0,.186-.116.33-.261.33l-1.313-.527-1.445-.787c-.469-.256-.797-.509-1.51-1.18-1.272,1.124-1.455,1.228-2.965,1.64-2.177.603-2.983.875-3.415,1.188-.424.296-.739.455-.91.455-.509,0-.865-.987-.865-2.435,0-2.105.123-3.189.46-4.01-1.28-.433-1.926-.589-2.391-.589-.175,0-.281.012-.961.128l-.294.028c-.189,0-.3-.234-.3-.627,0-.641.453-1.929,1.057-3.013.822-1.468,2.182-2.69,3.222-2.896l2.367-.455c1.401-.274,2.238-1.021,2.238-1.997,0-.945-.615-1.568-2.045-2.081l-2.76-.986c-.93-.332-1.81-.749-2.632-1.248-.693-.429-1.18-.709-1.442-.859-.241-.126-.49-.194-.716-.194-.585,0-.941.427-.941,1.126,0,1.111.863,2.033,1.908,2.033.235,0,.46-.05.667-.134.3-.128.504-.2.605-.2.3,0,.515.29.515.705,0,1.17-.732,3.191-1.513,4.158l-.788.991-.593.789c-.219,1.693-1.879,4.116-3.546,5.194-.405.256-.652.43-.727.523-.056.06-.227.375-.524.919-.137.254-.58.779-1.319,1.58-.553.599-1.102,1.106-1.641,1.51-.734.557-1.177.959-1.313,1.186l-.66,1.12c-.134.227-.3.339-.514.339-.587,0-1.128-.613-1.458-1.653-.238-.769-.454-.992-.952-.992-.255,0-.641.068-1.15.2l-.918.126h-2.305c-1.242,0-2.906.298-3.682.665-.296.14-.525.206-.677.206-.338,0-.512-.34-.512-1.003,0-2.085,1.605-5.247,3.691-7.292-.311-1.21-.945-2.019-1.776-2.233-.747-.2-1.141-.311-1.185-.328-.121-.064-.198-.184-.198-.313,0-.421.468-.835,1.515-1.332,1.866-.881,2.414-1.054,3.456-1.054,1.192,0,2.198.405,3.444,1.384,1.781,1.386,2.271,1.648,3.131,1.648,1.403,0,2.746-1.282,2.746-2.632,0-.909-.502-1.919-1.736-3.491-1.75-2.235-2.368-3.694-2.368-5.586,0-1.272.254-1.967,1.384-3.808.177-.296.276-.541.276-.705,0-.359-.6-.687-1.262-.687-.703,0-1.577.256-2.761.797-1.978.907-3.157,1.755-3.157,2.269,0,.204.121.411.329.557l.662.461c.082.058.137.16.137.274s-.125.34-.274.513c-.129.148-.569.717-1.317,1.708-.917,1.22-1.793,2.141-2.752,2.892-.355.272-.575.495-.665.661l-.522.988c-.439.821-1.737,2.179-2.831,2.956-.494.35-.801.595-.917.723-.135.148-.331.457-.593.919-.672,1.206-1.729,2.688-2.427,3.417l-1.776,1.843c-.512.523-1.226,2.045-1.908,4.07-.541,1.596-.886,2.311-1.131,2.311-.11,0-.294-.146-.512-.402-1.277-1.458-2.423-2.369-2.983-2.369-.144,0-.403.12-.767.332-.505.304-1.102.531-1.772.661l-2.367.454c-1.978.387-2.769.809-3.681,1.975-.228.29-.422.457-.523.457-.232,0-.406-.339-.406-.799l.067-.577c.018-.062.129-.655.337-1.773.338-1.871.816-3.421,1.313-4.276l1.187-2.039c.209-.369.328-.739.328-1.06,0-1.516-1.414-2.746-3.554-3.085-.436-.064-.66-.226-.66-.475,0-.302.515-.881,1.321-1.494,1.396-1.052,2.929-1.708,4.018-1.708.729,0,1.711.258,3.014.785l1.445.593c.535.224,1.036.339,1.465.339,1.531,0,3.012-1.396,4.845-4.539.827-1.432,1.185-2.45,1.185-3.385,0-1.664-.773-2.666-2.071-2.666-1.016,0-1.991.431-2.795,1.242-.716.727-1.09,1.452-1.09,2.101l.036.667.028.351c0,.531-.18.769-.573.769-.497,0-1.076-.483-2.211-1.847-.471-.565-1.086-1.282-1.843-2.165-1.999-2.337-2.413-3.275-2.498-5.658-2.231-2.842-2.782-4.421-2.782-6.069l.085-1.356c-1.597-1.921-1.908-2.66-1.908-4.551,0-.851.049-1.073.397-1.756-.785-1.154-1.037-1.671-1.248-2.564l-.328-1.386c-.227-.939-.574-1.743-1.053-2.432-.592-.847-.662-.971-.662-1.22,0-.687.657-1.128,2.306-1.538l.525-.134c-.09-.639-.134-1.13-.134-1.458,0-.38.049-.752.199-1.566l.46-2.435c.176-.946.269-1.67.269-2.156,0-.561-.088-1.013-.401-2.045-.202-.672-.428-1.179-.657-1.515-.253-.362-.396-.667-.396-.865,0-.225.225-.396.522-.396.161,0,.438.083.662.212,2.218,1.21,4.646,3.13,6.375,5.062,1.487,1.652,1.965,3.03,2.303,6.709,2.017,1.494,2.767,2.854,2.767,4.987,0,1.266-.413,2.489-1.321,3.883-.804,1.232-1.242,1.909-1.314,2.039-.391.657-.595,1.426-.595,2.225,0,1.186.36,2.303,1.252,3.884.979,1.743,1.861,2.502,2.907,2.502,1.723,0,3.284-2.978,3.284-6.257l-.013-.647v-1.775l.199-1.574.129-1.907.129-1.582.052-.879c0-.647-.134-.833-2.156-2.996-2.231-2.391-3.286-4.408-3.286-6.28,0-1.769,1.52-3.247,3.343-3.247.383,0,.724.065,1.39.256v-.786l.068-1.386.393-1.704c.315-1.365.461-1.613.93-1.613l.322.101,1.186,1.05,1.441.922.398.394c.093-.822.165-.985.853-1.844.34-.427.649-.845.917-1.246l.657-.985.397-.593c.264-.396.378-.499.546-.499.178,0,.302.227.507.962.085.296.29.594.589.852l.859.721c.693.587,1.153,1.453,1.442,2.697.52-.649.773-.882,1.314-1.187l1.055-.589c.387-.223.626-.334.696-.334.067,0,.183.158.291.396.152.345.325.677.528.987.847,1.363.919,1.557.919,2.48l-.004.548v.788c2.135.587,2.964,1.736,2.964,4.096,0,1.768-.808,3.591-2.503,5.632-1.123,1.35-1.315,1.769-1.315,2.786,0,4.637,3.493,7.445,9.4,7.533l4.337.066c2.837.044,4.565.332,7.167,1.182,3.042.999,4.035,1.254,4.958,1.254.67,0,1.223-.377,1.223-.821,0-.951-1.59-1.686-6.903-3.19-10.827-3.058-15.449-7.441-15.449-14.614,0-5.556,4.636-9.845,10.633-9.845,1.89,0,4.842.505,6.525,1.12l2.691.987c.494.181.971.277,1.414.277.928,0,1.282-.581,1.417-2.315.06-.773.307-1.115.801-1.115.69,0,2.035,1.083,3.006,2.433,1.003,1.386,1.714,3.216,1.714,4.407,0,1.402-.731,2.467-2.306,3.351-1.471,2.247-3.286,3.284-5.726,3.284-1.872,0-5.051-1.267-9.059-3.612-1.576-.923-2.272-1.181-3.146-1.181-1.184,0-1.944.661-1.944,1.705,0,.951.7,1.541,2.655,2.232,3.113,1.11,3.78,1.472,4.669,2.568,3.35.581,4.804,1.162,6.903,2.758,6.003,1.925,9.337,5.632,9.337,10.373,0,4.322-2.926,7.441-7,7.441-1.085,0-1.647-.064-3.197-.393"/>
            <path class="cls-3" d="M194.433,72.322c-.154-.599-.206-.885-.206-1.208l.075-.895c.162-1.23.211-1.819.211-2.558,0-.483-.141-.871-.476-1.318l-.791-1.053c-.514-.689-.718-1.206-.718-1.795,0-.379.087-.507.349-.507l.304.064c.034.02.23.13.589.33.266.15.492.224.657.224.397,0,.595-.617.595-1.849,0-1.71-.32-2.53-1.313-3.307l-.918-.723c-.162-.128-.269-.342-.269-.537,0-.316.186-.521.484-.521.184,0,.443.052.765.136l.727.2.279.062c.224,0,.325-.174.325-.557l-.013-.229-.196-1.384c-.209-1.434-.445-1.981-.869-1.981l-.116.014-1.708.324-.289.026c-2.053,0-4.476-1.947-5.103-4.1l-1.249-4.272c-.372-1.278-1.487-2.688-3.159-4.016-.546-.425-1.022-.679-1.379-.715l-1.181-.136c-.215-.024-.359-.154-.359-.322,0-.273.227-.401.713-.401,1.667,0,3.449.341,5.825,1.118,2.158.709,3.338.967,4.392.967,3.293,0,5.274-1.716,5.274-4.561,0-1.426-.517-3.219-1.252-4.36-.641-.985-1.721-1.999-3.094-2.89-.201-.134-.382-.206-.517-.206-.186,0-.336.146-.336.334l.067.853.003.078c0,.322-.186.585-.419.585-.364,0-.742-.427-1.161-1.316-1.211-2.568-3.163-4.118-5.174-4.118-.439,0-.69.154-.69.423,0,.202.119.505.341.869.211.33.407.731.592,1.182.103.256.158.449.158.563,0,.12-.104.188-.3.188-.294,0-.778-.269-1.107-.617-.656-.697-.984-1.05-.988-1.054l-.852-1.318c-.664-1.015-1.394-1.658-2.627-2.297l-1.649-.855c-.329-.172-.618-.266-.84-.266-.204,0-.307.102-.307.3,0,.206.101.469.297.755.348.515.607,1.07.607,1.31,0,.224-.144.396-.33.396-.461,0-1.285-.827-2.446-2.43-.832-1.15-1.257-2.401-1.257-3.693,0-2.767,2.133-4.925,4.881-4.925,1.409,0,3.174.592,4.917,1.646l3.157,1.908c1.129.683,2.654,1.185,3.608,1.185.522,0,.675-.029,1.851-.332.344-.088.629-.194.853-.325.142-.085.241-.24.241-.387,0-.256-.158-.371-.575-.401-1.463-.109-4.5-1.307-6.501-2.568-1.169-.732-1.895-1.151-2.171-1.244-.543-.193-.903-.473-.903-.7,0-.101.111-.158.284-.158l.382.067,2.865,1.049,2.758.986c1.355.481,3.457.92,4.418.92,1.246,0,2.11-.861,2.11-2.11,0-.628-.155-1.339-.414-1.83-.4-.786-.925-1.448-1.14-1.448-.256,0-.398.259-.398.703l.028.349.083.845c0,.886-.489,1.463-1.242,1.463-.294,0-.656-.072-1.076-.209l-4.273-1.376c-3.712-1.199-5.158-1.514-6.983-1.514-5.165,0-9.06,3.487-9.06,8.133,0,5.238,3.595,8.524,12.823,11.719,8.952,3.103,10.118,3.814,10.118,6.173,0,1.356-1.269,2.441-2.859,2.441-.587,0-1.104-.05-1.54-.132-.387-.08-1.877-.429-4.472-1.05-2.743-.665-5.07-.925-8.172-.925-6.519,0-9.659.995-13.061,4.146-.785.733-1.104.867-1.983.867l-.445-.016-1.036-.066c-.789,0-1.383.377-1.859,1.186l-1.053,1.776c-.144.244-.431.393-.752.393-.683,0-1.044-.451-1.683-2.035-.332-.843-.785-1.52-1.311-1.979l-1.383-1.184c-.206-.18-.327-.349-.327-.481,0-.134.118-.353.327-.633.209-.269.406-.573.593-.917.203-.371.311-.641.329-.797l.064-.589c.051-.192.242-.327.471-.327.437,0,.512.29.522,1.909,0,.415.176,1.02.523,1.773l.721,1.578c.098.204.325.332.595.332.685,0,1.545-1.6,1.773-3.291.188-1.4.339-1.847.628-1.847.271,0,.39.17.951,1.32.173.354.443.693.788.987.321.268.595.433.786.463l.072.002c.543,0,.724-.339.851-1.584l.062-.655-.13-.925-.089-.635c0-.423.147-.677.389-.677.142,0,.318.092.492.262l.656.661c.437.44.884.659,1.324.659.563,0,.912-.246.912-.647,0-.33-.075-.487-.656-1.46-.06-.094-.212-.379-.461-.853-.584-1.11-.858-1.384-1.373-1.384l-.667.064-.855.329c-.253.098-.43.152-.522.152-.112,0-.202-.114-.202-.266,0-.593.39-1.526,1.12-2.672.45-.713.829-2.48,1.114-5.164l.334-3.088c.198-1.896.405-2.57.788-2.57.139,0,.248.059.263.139l.194.984v.789c0,.959.103,1.736.224,1.736.279,0,.688-.327,1.09-.883.284-.399.505-.84.657-1.314.217-.706.332-1.285.332-1.724,0-1.52-.641-2.173-2.699-2.748-.207-.059-.344-.126-.39-.198l-.07-.593v-1.111l-.134-.794-.255-.657-.334-.721-.523.325c-1.343.843-1.669,1.095-2.109,1.645-.597.757-.803.944-1.051.944-.181,0-.323-.125-.323-.284l.261-1.123.023-.191c0-1.44-.809-2.834-2.257-3.881l-.46.525-.463.657-.786.923c-.458.535-.731,1.264-.731,1.949l.007.217.008.219c0,.52-.08.698-.323.698l-.144-.062-.526-.654-.656-.79-1.185-.724-.591-.458c-.634,1.377-.66,1.524-.66,3.293l.002.551c0,.593-.195.952-.512.952-.154,0-.432-.113-.801-.327-.296-.169-.649-.268-.977-.268-.956,0-1.659.812-1.659,1.922,0,1.204.259,2.029,1.058,3.342.515.853,1.197,1.544,1.509,1.544.036,0,.122-.609.202-1.412l-.202-1.117-.043-.502c0-.424.15-.688.398-.688.369,0,.595.41.83,1.515l.528,2.436.524,3.088c.143.831.41,1.713.792,2.628.517,1.24.891,2.011,1.113,2.299.729.939.814,1.066.814,1.274,0,.162-.134.306-.286.306-.14,0-.341-.07-.595-.196-.227-.118-.486-.213-.786-.264l-.48-.072c-1.089,0-1.311.875-1.311,5.242,0,2.722.565,6.351,1.264,8.11l1.38,3.487c.219.545.334,1.102.334,1.634,0,4.807-6.503,12.488-13.348,15.785-2.665,1.278-3.454,2.614-3.681,6.245,1.14-.545,1.597-.723,2.301-.921,1.938-.543,2.354-.819,2.626-1.712l.264-.855c.117-.365.362-.545,1.712-1.248.506-.263.868-.557,1.052-.851.344-.567.606-.847.779-.847.19,0,.288.126.288.34l-.015.104-.727,1.879-.08.463c0,1.38.771,2.526,2.187,3.249.091-.346.155-.609.194-.785.233-1.005.458-1.666.657-1.971l1.254-1.843c.45-.665.533-1.103.533-2.8l-.075-2.067-.039-.527c0-.343.162-.527.46-.527.227,0,.419.086.435.2l.194,1.25c.046.266.318.463.643.463.637,0,1.45-.813,2.319-2.301.331-.581.466-1.033.466-1.57,0-.417-.085-1.336-.207-2.043l-.028-.389c0-.327.193-.533.502-.533.165,0,.294.052.317.124l.461,1.518c.155.505.504.855.863.855,1.008,0,2.053-2.065,2.161-4.272.065-1.388.238-1.871.662-1.871.163,0,.289.06.325.16l.259.855c.097.313.286.521.472.521.166,0,.5-.292.913-.785.227-.284.429-.567.592-.855.126-.232.194-.467.194-.693,0-.332-.068-.423-.592-.821-.481-.362-.722-.827-.722-1.378,0-.953.404-1.977,1.574-4.012,1.074-1.845,1.218-2.059,1.479-2.059.245,0,.437.244.437.561,0,.194-.051.392-.139.577-.175.385-.268.645-.268.787,0,.256.234.467.522.467.32,0,.727-.138,1.195-.395.281-.158.876-.403,1.775-.725,1.221-.439,1.967-.707,2.233-.787.412-.13.881-.202,1.353-.202.38,0,.762.046,1.146.134.748.176,1.258.269,1.514.269.597,0,1.06-.457,1.06-1.04,0-.262-.179-.759-.406-1.137-.339-.545-.537-.861-.589-.915-.29-.305-.404-.471-.404-.593l.072-.266c.081-.162.222-.264.37-.264.52,0,1.536,1.062,2.453,2.572,5.155,8.416,7.653,11.076,11.443,12.224,3.95,1.198,4.876,2.031,4.876,4.386,0,1.248-.66,2.758-2.051,4.681-2.629,3.649-3.554,5.784-3.554,8.21l.007.541c.32-.138.564-.248.722-.333.54-.27.889-.431,1.055-.461l1.636-.327c.517-.104.93-.719.93-1.38l-.008-.13-.126-1.448-.015-.228c0-.815.398-1.486.889-1.486.183,0,.393.166.504.401l1.052,2.231c.427.913.928,1.346,2.3,1.973"/>
            <path class="cls-3" d="M140.528,27.226l-.066,1.054-.019.641c0,1.068.166,1.528.567,1.528.437,0,1.12-.815,1.426-1.711.187-.557.337-1.332.337-1.781,0-.318-.082-.611-.337-1.246-.296-.719-.599-1.052-.966-1.052-.564,0-.824.723-.941,2.566"/>
            <path class="cls-3" d="M135.991,15.066l.923.918c1.344,1.347,2.266,4.085,2.266,6.732l-.033,1.091-.196,3.088-.067,2.586c0,8.589,2.5,14.447,6.173,14.447.921,0,2.056-.849,2.834-2.109.17-.272.389-.475.527-.475.204,0,.311.176.327.543l.134,1.446.126,1.246c.067.587.129,1.048.199,1.384.129.633.199,1.066.199,1.29,0,.661-.134.733-1.711.945-.59.074-1.218.322-1.839.723-1.021.655-1.613,1.108-1.708,1.314l-.724,1.516c-.096.194-.257.327-.419.327-.386,0-.897-.583-1.623-1.843-.667-1.16-.964-1.829-.964-2.141,0-.21.163-.296.571-.296l.135.002.788.066.59-.066.53-.062c.227-.052.393-.248.393-.485,0-.158-.106-.306-.265-.369l-2.958-1.254c-.71-.301-1.47-1.064-2.166-2.163-.758-1.214-1.2-2.267-1.2-2.864,0-.469.201-.769.515-.769.124,0,.294.044.484.148.328.156.631.264.77.264.111,0,.235-.05.351-.134.126-.1.199-.216.199-.317,0-.188-.199-.435-.525-.675-2.462-1.744-3.951-3.86-3.951-5.606,0-.513.117-.747.37-.747l.486.046c.358.074.784.134.923.134.359,0,.603-.202.603-.509,0-.188-.243-.431-.605-.609-1.639-.819-2.043-1.29-3.089-3.619-.802-1.786-1.218-2.53-1.906-3.417.858-.412,1.324-.535,2.043-.535.899,0,1.465.587,2.099,2.177.401,1.005.835,1.682,1.088,1.682.117,0,.169-.21.169-.759,0-.651-.094-1.318-.272-1.971-.16-.601-.232-1.09-.193-1.45l-.132-.921-.727-.395c-.669-.36-1.119-1.229-1.119-2.154,0-.411.042-.817.131-1.192.018-.078.15-.58.398-1.517.284-1.068.466-2.177.466-2.782l-.006-.566.59.653Z"/>
            <path class="cls-3" d="M143.879,62.464c-1.383-.234-1.597-.302-3.152-.983-1.078-.479-1.775-.667-2.468-.667-1.04,0-1.841.328-2.794,1.126l.589.457,1.319.922,1.254.985c.317.256.708.399,1.102.399,1.29,0,2.375-.589,4.151-2.237"/>
            <path class="cls-3" d="M169.189,74.429c.368-.817.535-1.041,1.316-1.712,1.839-1.576,2.694-2.746,2.694-3.679v-1.448c0-.843.139-1.12.579-1.12.197,0,.357.076.409.2l.328.783c.075.184.289.294.556.294.468,0,.802-.336,1.613-1.67.344-.565.481-.93.481-1.302,0-.234-.052-.483-.155-.739-.049-.124-.201-.471-.46-1.047-.148-.338-.269-.791-.269-1.03,0-.43.219-.685.59-.685.198,0,.371.076.475.206l.52.651c.119.142.148.23.348.23.242,0,.674-.23.839-.555l.526-1.053c.133-.26.201-.471.201-.597,0-.222-.209-.447-.533-.585l-.92-.398c-1.077-.461-1.973-2.314-1.973-4.074,0-.198.07-.487.197-.853l.398-1.12c.131-.367.196-.739.196-1.091,0-.647-.198-1.268-.656-1.997-.453-.737-.719-1.194-.791-1.38-.379-.979-.608-1.302-.931-1.302-.232,0-.452.084-.842.313l-.657.398-.922,1.056-.923.454c-.549.278-1.072,1.468-1.072,2.46,0,1.42.312,2.191,2.455,6.025.909,1.622,1.337,2.824,1.337,3.741,0,2.676-2.73,4.879-7.187,5.787-5.326,1.094-6.486,1.971-7.099,5.394.921-.477,1.288-.545,2.913-.545l.964.012.153.002c.879,0,.997-.06,1.558-.855.644-.909,1.285-1.45,2.17-1.833l1.052-.464.853-.461.263-.068c.238,0,.364.096.364.274,0,.226-.214.603-.628,1.11-.636.771-1.004,1.564-1.004,2.167,0,.879.145,1.322.675,2.107"/>
            <path class="cls-3" d="M160.906,64.238c.758.472,1.522,1.156,1.972,1.774.629.857.716.923,1.343.923.258,0,.587-.046.958-.138l.592-.128c1.12-.212,1.458-.375,1.458-.673,0-.182-.103-.365-.276-.511l-.788-.655-.722-.661c-.447-.403-1.365-.729-2.073-.729-.816,0-1.484.216-2.463.797"/>
            <path class="cls-3" d="M182.203,67.789l.392-.07.662-.064.526.064.356.022c.667,0,1.01-.072,1.287-.288.409-.307.823-.803,1.252-1.51.17-.282.258-.539.258-.745,0-.443-.407-.701-1.125-.701-1.805,0-2.911,1.007-3.609,3.293"/>
            <path d="M157.685,22.367c.074.611.393,1.112.716,1.112.278,0,.713-.943,1.398-2.097.93-1.588,1.701-2.905,1.701-3.745,0-.277-.143-.492-.326-.492l-.072.021-.721.665c-.422.382-1.329.875-2.169,1.181-.837.299-1.083.556-1.083,1.115l.096.53.546,1.137-.085.575Z"/>
            <path d="M151.903,17.502c-.23-.189-.559-.337-.734-.337-.279,0-.398.144-.398.476l.015.189c.052.362.142.734.258,1.114.325,1.045.711,1.672.864,1.839l.992,1.662c.46.527,1.158.823,1.429.905l.047.006c.178,0,.323-.112.343-.269l.204-1.316.325-1.187.039-.278c0-.318-.183-.603-.497-.768l-1.12-.595-1.771-1.442Z"/>
            <path d="M156.237,25.85l-.348.002-.766-.068c-.026-.01-.292-.171-.793-.467-.294-.174-.613-.262-.923-.262-.603,0-.964.372-.964,1.007,0,.495.294,1.448.837,2.742.236.553.521,1.254.856,2.101.721,1.839,1.473,2.63,2.464,2.63.85,0,1.536-.699,2.071-2.097l.726-2.962c.349-.921,1.218-1.306,1.218-1.953,0-.755-.843-1.478-1.561-1.478l-.383.074-.984.665-1.448.066Z"/>
            <path class="cls-3" d="M156.175,27.687h-.791c-.119,0-.24.072-.329.196-.129.184-.199.307-.199.328l.328,1.581.264,1.376c.149.759.273,1.055.839,1.055.645,0,1.195-.441,1.264-1.25l.133-1.448c.09-.959.131-1.464.131-1.5,0-.142-.072-.286-.193-.403-.099-.09-.218-.142-.339-.142l-.059.008-1.049.198Z"/>
          </g>
          <g id="Lion_top_left">
            <path d="M65.259,43.53l.263.985c.237.887.411,1.592.528,2.105.826,3.755,1.524,4.739,3.347,4.739,1.042,0,1.908-.579,2.172-1.45l.398-1.318c.086-.303.318-.481.629-.481.711,0,1.045.739,1.075,2.389.014.473.166,1.546.466,3.219.173.989.258,1.951.258,2.868,0,.847-.064,1.194-.39,2.061.224,1.29.396,3.029.396,4.026,0,1.628-.305,3.137-.791,3.928.273,1.09.333,1.526.333,2.476,0,.703-.07,1.466-.204,2.193-.287,1.578-.349,1.979-.349,2.271,0,.298.057.595.153.883.128.378.196.641.196.787,0,.186-.086.33-.196.33l-1.314-.527-1.447-.787c-.466-.256-.791-.509-1.51-1.18-1.279,1.15-1.659,1.32-4.997,2.235-.667.176-1.161.381-1.448.593-.411.296-.718.455-.873.455-.564,0-.837-.907-.837-2.786,0-1.39.141-2.686.397-3.659-.982-.377-1.817-.589-2.349-.589-.101,0-.436.046-1.003.128l-.246.022c-.191,0-.353-.288-.353-.631,0-.256.178-.889.404-1.426l.654-1.576c.239-.571.783-1.228,1.579-1.903.649-.557,1.241-.895,1.709-.994l2.367-.455c1.406-.274,2.244-1.021,2.244-1.997,0-.945-.634-1.584-2.048-2.081l-2.826-.986c-.728-.252-1.589-.677-2.567-1.248-1.567-.929-1.83-1.054-2.205-1.054-.564,0-.889.427-.889,1.17,0,1.17.76,1.987,1.844,1.987.219,0,.448-.048.659-.132.32-.128.551-.2.678-.2.296,0,.46.174.46.501l-.018.288-.132,1.118c-.113.957-.729,2.113-2.104,3.948l-.587.789c-.536,2.115-1.854,4.044-3.549,5.194-.43.286-.675.465-.727.523-.057.06-.232.375-.527.919-.132.254-.575.779-1.314,1.58-.554.605-1.107,1.106-1.644,1.51-.734.557-1.179.962-1.313,1.186l-.657,1.12c-.121.203-.317.327-.53.327-.58,0-1.117-.605-1.445-1.64-.238-.769-.456-.992-.951-.992-.256,0-.642.068-1.148.2l-.92.126h-2.371c-1.181,0-2.852.309-3.614.665-.305.14-.533.206-.678.206-.165,0-.263-.086-.44-.405-.116-.22-.144-.324-.144-.527,0-1.204.858-3.463,1.982-5.262.72-1.136.944-1.398,1.774-2.103-.266-1.114-.977-1.979-1.836-2.233l-1.12-.328c-.155-.046-.266-.178-.266-.319,0-.343.536-.809,1.517-1.326,1.283-.677,2.576-1.054,3.61-1.054,1.093,0,2.147.433,3.358,1.384,1.784,1.392,2.259,1.648,3.131,1.648,1.406,0,2.743-1.288,2.743-2.638,0-.899-.478-1.863-1.736-3.485-1.83-2.37-2.38-3.601-2.38-5.34,0-1.08.334-2.459.737-3.074l.659-.98c.139-.222.219-.439.219-.635,0-.441-.506-.757-1.189-.757-1.037,0-3.032.741-4.62,1.714-.786.483-1.324,1.048-1.324,1.402,0,.206.103.395.273.507l.726.461c.085.054.141.158.141.274,0,.092-.111.3-.273.513l-1.316,1.708c-.677.887-1.724,1.981-2.759,2.892-.348.306-.566.525-.659.661-.008.008-.183.337-.522.988-.471.875-1.714,2.147-2.896,2.956-.483.332-.79.575-.919.723-.096.11-.273.421-.525.919-.165.32-.454.783-.859,1.378-.641.953-1.174,1.634-1.574,2.039l-1.844,1.843c-.568.563-1.062,1.666-1.84,4.07-.462,1.456-.883,2.311-1.127,2.311-.111,0-.291-.146-.515-.402-1.303-1.486-2.423-2.369-3.013-2.369-.135,0-.383.114-.732.332-.482.3-1.08.531-1.777.661l-2.43.454c-1.838.349-2.565.747-3.617,1.975-.252.29-.46.457-.574.457-.201,0-.348-.326-.348-.763l.067-.613.333-1.773c.348-1.899.783-3.311,1.314-4.276l1.111-2.039c.222-.397.331-.759.331-1.066,0-1.516-1.564-2.902-3.48-3.079-.487-.04-.672-.156-.672-.429,0-.333.535-.992,1.264-1.54,1.316-.999,3.036-1.713,4.139-1.713.665,0,1.693.28,2.955.789l1.448.593c.537.224,1.033.339,1.465.339,1.531,0,3.014-1.396,4.842-4.539.825-1.424,1.184-2.452,1.184-3.377,0-1.66-.786-2.674-2.086-2.674-.984,0-2.063.471-2.841,1.242-.662.669-1.01,1.368-1.01,2.037l.023.731.008.162c0,.615-.204.957-.572.957-.623,0-1.522-.886-4.102-4.012-1.924-2.331-2.353-3.329-2.433-5.658-2.231-2.842-2.784-4.048-2.784-6.069l.091-1.356c-1.544-1.857-1.978-2.87-1.978-4.573,0-.621.1-.989.466-1.735-.784-1.154-1.038-1.671-1.25-2.564l-.328-1.386c-.224-.939-.579-1.753-1.052-2.432-.6-.849-.659-.965-.659-1.258,0-.761.525-1.064,2.831-1.634-.094-.639-.135-1.13-.135-1.458,0-.38.044-.752.199-1.566l.458-2.435c.186-.983.281-1.684.281-2.104,0-.456-.073-.778-.48-2.097-.227-.75-.427-1.261-.587-1.515-.217-.337-.401-.75-.401-.901,0-.228.163-.36.452-.36.655,0,2.374,1.044,4.152,2.514,3.772,3.122,4.55,4.371,5.065,8.148.038.295.1.733.196,1.322,1.81,1.328,2.761,2.934,2.761,4.659,0,1.356-.497,2.938-1.316,4.212l-1.317,2.039c-.387.597-.591,1.348-.591,2.173,0,1.238.356,2.374,1.249,3.936,1.007,1.775,1.867,2.502,2.929,2.502,1.731,0,3.252-3.016,3.252-6.445v-.459l-.011-1.184c0-.669.039-1.332.143-2.165.121-1.023.185-1.658.193-1.907l.07-1.582.021-1.037c0-.366-.194-.739-.683-1.258l-1.44-1.58c-2.094-2.281-3.242-4.424-3.242-6.029,0-1.996,1.437-3.498,3.356-3.498.381,0,.729.065,1.393.256v-.448c0-2.898.595-5.041,1.391-5.041l.315.101,1.187,1.05,1.443.922.398.394c0-.815.041-.9.858-1.844.196-.224.499-.641.918-1.246.33-.487.553-.815.653-.985.103-.169.215-.371.333-.593.173-.336.349-.492.544-.492.183,0,.333.238.571.955.155.447.258.569,1.386,1.573.39.354.659.644.783.858.111.178.288.618.53,1.309.042.119.104.291.197.53.488-.618.726-.838,1.313-1.187l.987-.589c.368-.223.623-.339.729-.339.082,0,.209.158.323.4.103.235.281.559.525.987.698,1.221.933,1.808.933,2.38l-.018.648v.788c2.16.678,2.967,1.795,2.967,4.116,0,1.673-.876,3.593-2.57,5.612-1.13,1.346-1.259,1.612-1.259,2.55,0,4.865,3.386,7.681,9.346,7.769l4.402.066c2.834.044,4.525.324,7.164,1.182,3.127,1.02,4.035,1.254,4.94,1.254.304,0,.603-.096.85-.268.243-.166.39-.389.39-.583,0-.921-1.616-1.66-6.9-3.161-10.843-3.07-15.447-7.437-15.447-14.617,0-5.55,4.615-9.846,10.582-9.846,1.923,0,4.878.506,6.571,1.124l2.691.987c.496.181.971.277,1.419.277.915,0,1.381-.762,1.412-2.315.02-.827.207-1.115.749-1.115.758,0,1.929.947,2.997,2.433,1.082,1.499,1.781,3.19,1.781,4.315,0,1.497-.704,2.536-2.306,3.443-1.476,2.247-3.291,3.284-5.729,3.284-1.9,0-4.599-1.074-9.061-3.612-1.556-.883-2.349-1.181-3.17-1.181-1.16,0-1.918.672-1.918,1.705,0,.946.734,1.562,2.658,2.232,2.839.995,3.539,1.382,4.666,2.568,3.348.581,4.806,1.162,6.905,2.758,5.768,1.833,9.347,5.764,9.347,10.277,0,4.388-2.97,7.543-7.096,7.543-.98,0-1.585-.074-3.107-.399"/>
            <path class="cls-3" d="M71.766,72.322c-.178-.791-.242-1.198-.242-1.586l.046-.517.196-1.053.07-.849c0-.913-.155-1.562-.463-1.973l-.791-1.053c-.256-.35-.487-.773-.654-1.254-.091-.236-.135-.428-.135-.553,0-.298.179-.483.476-.483.176,0,.246.032.841.383.255.15.478.224.643.224.39,0,.608-.635.608-1.751,0-1.268-.116-1.975-.394-2.289l-.989-1.115-.853-.723c-.206-.178-.35-.4-.35-.573,0-.282.217-.481.536-.481.297,0,.928.142,1.455.332l.3.062c.272,0,.375-.156.375-.545l-.016-.24-.198-1.384-.391-1.444c-.129-.471-.202-.543-.499-.543l-.165.02-1.637.324-.263.026c-2.154,0-4.431-1.819-5.128-4.1l-1.314-4.272c-.406-1.32-1.391-2.572-3.158-4.016-.531-.435-.988-.681-1.311-.715l-1.188-.136c-.216-.024-.356-.148-.356-.329,0-.268.253-.392.818-.392l2.168.194c.791.074,1.986.383,3.549.922,1.968.677,3.295.967,4.411.967,3.286,0,5.256-1.778,5.256-4.751,0-2.035-1.065-4.338-2.692-5.816-.928-.827-1.851-1.45-2.172-1.45-.185,0-.332.152-.332.348l.067.839.005.078c0,.328-.193.585-.45.585-.333,0-.706-.433-1.135-1.316-1.244-2.588-3.217-4.126-5.259-4.126-.346,0-.587.144-.587.349,0,.134.106.457.323.951l.525,1.182c.139.312.214.517.214.605,0,.074-.126.146-.279.146-.304,0-.783-.269-1.117-.617l-.98-1.054-.857-1.318c-.688-1.049-1.236-1.528-2.697-2.297-.814-.435-1.34-.721-1.577-.855-.302-.172-.582-.266-.817-.266s-.351.112-.351.342c0,.212.091.463.251.713.486.751.675,1.124.675,1.318,0,.208-.155.388-.34.388-.506,0-1.571-1.033-2.508-2.43-.773-1.158-1.186-2.447-1.186-3.693,0-2.826,2.062-4.925,4.855-4.925,1.442,0,3.263.61,4.943,1.646l3.088,1.908c1.073.667,2.653,1.185,3.594,1.185.418,0,1.285-.148,1.928-.332.288-.077.554-.186.788-.325.181-.111.31-.258.31-.369,0-.132-.072-.251-.181-.288l-.392-.131-1.445-.266c-.374-.067-.974-.288-1.771-.66-1.737-.79-2.838-1.344-3.291-1.641-1.08-.708-1.807-1.123-2.167-1.244-.535-.181-.868-.422-.868-.625,0-.197.101-.291.295-.291.185,0,.432.086.7.251.969.605,1.813.922,2.432.922l2.828.986c1.404.491,3.449.92,4.372.92,1.192,0,2.158-.972,2.158-2.172,0-.772-.461-1.93-1.139-2.884-.153-.215-.31-.337-.443-.337-.265,0-.409.189-.409.528l.06.53.103.783c0,.853-.574,1.523-1.303,1.523-.268,0-.615-.07-1.034-.207l-4.27-1.376c-3.584-1.158-5.238-1.514-7.034-1.514-5.111.008-9.01,3.516-9.01,8.133,0,5.23,3.674,8.605,12.755,11.719,8.935,3.069,10.191,3.814,10.191,6.117,0,1.318-1.339,2.498-2.831,2.498-.605,0-1.135-.05-1.576-.132-.304-.064-1.792-.415-4.468-1.05-2.699-.649-5.152-.925-8.183-.925-6.449,0-10.025,1.13-13.12,4.146-.77.753-1.03.867-1.92.867l-.443-.016-.92-.064-.119-.002c-.775,0-1.341.359-1.854,1.186-.695,1.112-1.071,1.706-1.119,1.776-.183.248-.464.393-.75.393-.592,0-.943-.447-1.613-2.035-.325-.775-.796-1.448-1.38-1.979l-1.316-1.184c-.215-.19-.331-.369-.331-.501,0-.146.093-.356.261-.613.631-.915.848-1.324.923-1.715.175-.873.201-.915.561-.915.408,0,.525.405.556,1.909.01.435.185,1.038.53,1.773l.724,1.578c.09.204.323.332.592.332.68,0,1.54-1.598,1.773-3.291.188-1.412.338-1.847.63-1.847.122,0,.228.05.289.138.066.096.268.489.591,1.182.173.364.464.703.856.987.378.279.646.435.788.463l.08.008c.533,0,.714-.349.84-1.59l.065-.655-.132-.925-.092-.635c0-.423.149-.677.389-.677.145,0,.32.092.492.262l.659.661c.437.432.879.655,1.3.655.546,0,.882-.222.882-.583,0-.316-.122-.627-.608-1.52l-.458-.853c-.528-.992-.946-1.384-1.44-1.384l-.664.064-.784.329c-.242.098-.415.152-.517.152-.124,0-.209-.112-.209-.26,0-.589.382-1.518,1.116-2.678.52-.833.879-2.612,1.051-5.164.224-3.433.684-5.658,1.163-5.658.328,0,.45.276.45,1.011l-.033.902-.024.629c0,.615.135,1.108.296,1.108.563,0,1.231-.837,1.763-2.197.222-.571.339-1.023.339-1.341l-.073-.305-1.313-2.436-1.316-.391c-.243-.072-.409-.183-.461-.294v-1.607l-.131-.794-.266-.657-.323-.721c-1.442.781-2.125,1.295-2.632,1.97-.515.688-.806.952-1.062.952-.17,0-.318-.161-.318-.347,0-.162.065-.514.197-1.068l.041-.368c0-1.414-.861-2.805-2.275-3.704l-.393.525-.463.657-.788.923c-.251.292-.477.738-.66,1.313-.088.278-.134.533-.134.75l.003.103.007.24c0,.546-.059.687-.304.687l-.163-.072-.461-.654-.72-.79-1.118-.724-.59-.458c-.119.259-.206.458-.263.589-.204.458-.315.812-.328,1.055l-.071,1.051-.064,1.114.008.193c0,.577-.139.797-.489.797-.116,0-.45-.14-.768-.329-.289-.169-.623-.268-.951-.268-1.023,0-1.68.708-1.68,1.816,0,1.313.388,2.575,1.057,3.448l.85,1.118c.236.298.67.555.693.393l.163-1.378-.199-1.117-.039-.502c0-.424.147-.688.391-.688.372,0,.595.41.833,1.515l.522,2.436.53,3.088c.14.831.407,1.713.786,2.628.522,1.24.897,2.011,1.119,2.299.732.939.81,1.066.81,1.274,0,.162-.132.306-.282.306-.139,0-.343-.07-.592-.196-.227-.118-.491-.213-.789-.264l-.514-.074c-1.057,0-1.272.905-1.272,5.294,0,2.68.566,6.313,1.262,8.06l1.377,3.487c.22.545.328,1.102.328,1.63,0,4.795-6.356,12.318-13.341,15.789-2.599,1.284-3.428,2.522-3.614,5.386l-.065.859c1.057-.553,1.491-.733,2.231-.921,1.96-.511,2.339-.757,2.634-1.712l.258-.855c.101-.322.266-.439,1.776-1.248.52-.272.881-.571,1.055-.851.33-.555.605-.849.781-.849.162,0,.253.076.253.212l-.054.234-.654,1.879-.08.461c0,1.392.762,2.526,2.184,3.251.233-1.52.392-2.041.856-2.756l1.181-1.843c.44-.685.623-1.514.623-2.814,0-.735-.059-1.492-.162-2.053l-.044-.521c0-.332.173-.527.462-.527.228,0,.412.08.436.194l.266,1.25c.051.27.325.463.638.463.633,0,1.455-.823,2.319-2.301.317-.551.489-1.15.489-1.741l-.099-.891-.195-.981-.016-.192c0-.431.24-.733.581-.733.151,0,.272.056.292.128l.39,1.518c.132.503.487.855.853.855.442,0,1.2-.761,1.644-1.646.398-.783.594-1.672.594-2.688,0-1.404.145-1.805.658-1.805.165,0,.298.058.327.156l.263.855c.101.313.287.521.471.521.271,0,1.008-.795,1.502-1.64.132-.218.201-.435.201-.611,0-.282-.188-.565-.594-.904-.688-.567-.727-.655-.727-1.512,0-.825.134-1.26.727-2.297.318-.563.6-1.086.853-1.58.831-1.626,1.127-2.043,1.43-2.043.252,0,.48.274.48.579,0,.172-.044.359-.137.543-.177.37-.265.633-.265.781,0,.259.217.473.488.473.302,0,.704-.138,1.159-.395.176-.104.791-.338,1.838-.725l2.174-.787c.356-.13.802-.2,1.316-.2.404,0,.794.044,1.179.132.776.176,1.283.269,1.516.269.594,0,1.122-.513,1.122-1.096,0-.439-.453-1.298-1.058-1.997-.225-.264-.338-.463-.338-.599l.077-.26c.086-.162.219-.264.349-.264.442,0,1.481,1.108,2.412,2.572,5.657,8.909,7.688,11.066,11.505,12.224,3.864,1.178,4.875,2.081,4.875,4.376,0,1.256-.643,2.718-2.049,4.691-2.862,4.004-3.553,5.622-3.553,8.264l.003.487c.323-.138.564-.248.724-.333.535-.27.892-.431,1.049-.461l1.641-.327c.494-.102.933-.735.933-1.344l-.01-.166-.197-1.448-.015-.192c0-.513.256-1.1.606-1.388.108-.082.224-.14.343-.14.181,0,.403.172.514.407l1.051,2.231c.432.913.932,1.346,2.297,1.973"/>
            <path class="cls-3" d="M18.767,24.665c-.48,0-.726.412-.775,1.316l-.129,1.246c-.152,1.166-.162,1.288-.162,1.59,0,.939.278,1.636.659,1.636.422,0,1.077-.803,1.406-1.718.201-.557.298-1.037.298-1.534,0-.435-.106-.962-.298-1.486-.238-.669-.605-1.049-.998-1.049"/>
            <path class="cls-3" d="M13.326,15.066l.92.918c1.502,1.5,2.241,3.987,2.241,7.527,0,.777-.036,1.3-.204,3.385-.083,1.098-.132,2.001-.132,2.71,0,8.152,2.65,14.317,6.155,14.317,1.105,0,1.821-.527,2.855-2.103.168-.256.431-.475.594-.475.207,0,.31.17.324.543l.132,1.446.134,1.246.129,1.384.196,1.25.013.158c0,.365-.16.573-.473.625l-1.182.202c-.587.092-1.213.341-1.841.723-.992.595-1.587,1.054-1.708,1.314l-.722,1.516c-.101.194-.256.327-.411.327-.38,0-.993-.665-1.698-1.843-.6-1.001-.962-1.816-.962-2.147,0-.208.161-.289.577-.289h.127l.85.066.525-.066.595-.062c.225-.028.397-.227.397-.463,0-.172-.108-.329-.266-.391l-2.956-1.254c-.911-.381-1.701-1.148-2.234-2.163-.815-1.558-1.192-2.489-1.192-2.956,0-.405.211-.673.535-.673.114,0,.269.048.458.144.292.142.677.264.832.264.258,0,.487-.196.487-.414,0-.178-.236-.491-.528-.711-2.47-1.791-3.886-3.85-3.886-5.626,0-.495.121-.733.38-.733l.479.052.853.128h.041c.321,0,.567-.21.567-.507,0-.18-.22-.43-.543-.605-.585-.33-.936-.529-1.051-.591-.366-.228-.679-.541-.919-.925-.106-.174-.48-.871-1.115-2.103l-.92-1.775c-.346-.661-.544-1.037-.595-1.116-.06-.096-.189-.271-.399-.527.861-.412,1.329-.535,2.048-.535.897,0,1.466.587,2.102,2.177.395,1.005.835,1.682,1.082,1.682.125,0,.171-.218.171-.771,0-.649-.093-1.314-.274-1.959-.157-.597-.227-1.09-.196-1.45l-.129-.921-.785-.395c-.176-.08-.381-.316-.595-.655-.366-.577-.525-1.057-.525-1.496,0-.282.072-.73.196-1.195.667-2.51.863-3.485.863-4.299l-.011-.566.593.653Z"/>
            <path class="cls-3" d="M21.214,62.464c-.918-.134-1.347-.238-1.908-.463-.155-.062-.571-.236-1.247-.521-1.059-.453-1.853-.665-2.515-.665-.993,0-1.805.337-2.74,1.124l.589.457,1.313.922,1.252.985c.32.256.702.399,1.082.399,1.288,0,2.407-.603,4.173-2.237"/>
            <path class="cls-3" d="M46.526,74.429c.359-.817.53-1.041,1.316-1.712,1.836-1.576,2.691-2.746,2.691-3.679v-1.448c0-.843.143-1.12.583-1.12.195,0,.354.076.406.2l.325.783c.077.186.298.304.556.304.25,0,.631-.3.959-.765l.659-.915c.329-.459.476-.855.476-1.284,0-.256-.054-.511-.147-.757-.054-.126-.207-.475-.461-1.047-.152-.338-.271-.791-.271-1.03,0-.43.217-.685.59-.685.193,0,.366.076.468.206l.528.651c.113.142.3.23.499.23.24,0,.52-.23.682-.555l.526-1.053c.137-.266.208-.471.208-.587,0-.204-.214-.417-.6-.595l-.855-.398c-1.127-.517-1.98-2.327-1.98-4.212,0-.252.051-.501.137-.715l.46-1.12c.134-.314.201-.669.201-1.047,0-.685-.225-1.372-.661-2.041-.526-.809-.812-1.27-.856-1.38-.388-1.039-.587-1.33-.91-1.33l-.332.08-.461.261-.727.398-.853,1.056-.919.454c-.551.276-1.071,1.448-1.071,2.416,0,1.709.193,2.179,2.446,6.069.879,1.5,1.339,2.8,1.339,3.757,0,2.692-2.412,4.611-7.252,5.77l-3.022.723c-2.226.537-3.539,2.063-4.012,4.671.922-.477,1.285-.545,2.913-.545l.967.012.152.002c.876,0,.997-.06,1.553-.855.652-.909,1.291-1.45,2.172-1.833l1.053-.464.855-.461.26-.068c.235,0,.363.096.363.271,0,.256-.24.687-.623,1.113-.758.841-1.053,1.548-1.053,2.546,0,.633.153,1.003.724,1.728"/>
            <path class="cls-3" d="M38.24,64.238c.756.472,1.526,1.156,1.976,1.774.628.857.718.923,1.337.923.266,0,.591-.046.961-.138l.589-.128c1.086-.21,1.453-.369,1.453-.635,0-.158-.119-.36-.334-.549l-.721-.655-.721-.661c-.466-.425-1.383-.737-2.169-.737-.791,0-1.249.16-2.371.805"/>
            <path class="cls-3" d="M59.541,67.789l.392-.07.595-.064.592.064.289.02c1.46,0,2.862-1.238,2.862-2.542,0-.451-.411-.701-1.159-.701-1.772,0-2.883,1.019-3.572,3.293"/>
            <path d="M35.024,22.367c.07.607.388,1.112.711,1.112.276,0,.595-.727,1.277-1.883.928-1.579,1.823-3.118,1.823-3.958,0-.279-.137-.491-.329-.491l-.067.02-.724.657c-.524.474-.935.698-2.236,1.182-.742.283-1.011.579-1.011,1.12l.093.527.329.923.134.791Z"/>
            <path d="M31.012,18.944l1.112.595c.307.162.476.377.476.633l-.078.414c-.162.554-.033,1.171-.043,1.401-.057,1.176-.949,1.164-1.309,1.164-.217,0-.103-.136-.618-.727l-1.447-1.64c-.446-.505-.833-1.655-.989-2.952l-.008-.171c0-.36.115-.494.399-.494.175,0,.501.147.728.337l1.777,1.442Z"/>
            <path d="M33.571,25.85l-.355.002-.759-.068c-.016-.008-.281-.162-.791-.467-.297-.174-.621-.262-.938-.262-.595,0-.98.328-.98.825,0,.545.266,1.442.866,2.924l.858,2.101c.75,1.851,1.478,2.632,2.445,2.632.863,0,.977-.845,1.559-2.297,1.313-3.305,2.045-3.792,2.045-4.961,0-.799-.176-1.014-.902-1.014l-.613-.146-1.053.665-1.383.066Z"/>
            <path class="cls-3" d="M33.509,27.687h-.855c-.124,0-.253.072-.328.196l-.129.328.325,1.581.263,1.376c.145.759.424,1.055.99,1.055.644,0,1.042-.441,1.115-1.25l.131-1.448c.086-.959.129-1.464.129-1.5,0-.142-.072-.286-.196-.403-.095-.09-.214-.142-.33-.142l-.062.008-1.052.198Z"/>
          </g>
        </g>
        <path d="M119.244,86.653c-.574-1.402-1.949-2.391-3.558-2.391s-2.984.989-3.558,2.391h-5.611c-.574-1.402-1.949-2.391-3.558-2.391s-2.984.989-3.558,2.391h-5.611c-.574-1.402-1.949-2.391-3.558-2.391s-2.984.989-3.558,2.391h-7.267v34.075h6.445v13.062h7.562v-13.061h19.089v13.061h7.555v-13.061h6.434v-34.076h-7.249Z"/>
        <rect class="cls-3" x="87.253" y="123.711" width="3.912" height="5.033"/>
        <rect class="cls-3" x="87.253" y="129.88" width="3.912" height="1.59"/>
        <rect class="cls-3" x="113.905" y="123.711" width="3.912" height="5.033"/>
        <rect class="cls-3" x="113.905" y="129.88" width="3.912" height="1.59"/>
        <rect class="cls-1" x="82.039" y="89.449" width="41.822" height="1.554"/>
        <polygon class="cls-1" points="82.057 118.099 123.861 118.099 123.861 92.465 82.039 92.465 82.057 118.099"/>
        <path class="cls-3" d="M88.44,88.372c0-.989.802-1.792,1.792-1.792s1.792.802,1.792,1.792v4.709c0,.989-.802,1.792-1.792,1.792s-1.792-.802-1.792-1.792v-4.709Z"/>
        <path class="cls-3" d="M101.167,88.372c0-.989.802-1.792,1.792-1.792s1.792.802,1.792,1.792v4.709c0,.989-.802,1.792-1.792,1.792s-1.792-.802-1.792-1.792v-4.709Z"/>
        <path class="cls-3" d="M113.895,88.372c0-.989.802-1.792,1.792-1.792s1.792.802,1.792,1.792v4.709c0,.989-.802,1.792-1.792,1.792s-1.792-.802-1.792-1.792v-4.709Z"/>
        <g>
          <path class="cls-3" d="M92.94,105.549c2.696,3.373,6.096,5.041,10.299,5.041,3.892,0,6.571-1.394,9.72-5.041-3.143-3.225-6.067-4.575-9.913-4.575-4.041,0-7.686,1.653-10.106,4.575"/>
          <path d="M102.95,102.496c-2.898,0-5.246.895-8.023,3.053,2.301,2.275,5.005,3.449,7.975,3.449,3.343,0,5.523-.923,8.005-3.385-2.851-2.261-5.034-3.117-7.958-3.117ZM102.842,106.342c-1.551,0-2.867-.417-4.53-1.454,1.388-.751,2.944-1.132,4.599-1.132,1.582,0,3.196.386,4.749,1.132-1.473.997-2.996,1.454-4.818,1.454Z"/>
        </g>
        <path d="M119.366,115.827c-1.246,0-2.26-1.012-2.26-2.254s1.014-2.258,2.26-2.258,2.26,1.014,2.26,2.258-1.014,2.254-2.26,2.254Z"/>
        <path class="cls-3" d="M119.366,111.853c-.949,0-1.722.771-1.722,1.72s.772,1.716,1.722,1.716,1.721-.769,1.721-1.716-.772-1.72-1.721-1.72Z"/>
        <path d="M86.621,115.827c-1.284,0-2.329-1.012-2.329-2.254s1.012-2.258,2.257-2.258,2.262,1.014,2.262,2.258-.982,2.254-2.19,2.254Z"/>
        <path class="cls-3" d="M86.549,111.853c-.947,0-1.718.771-1.718,1.72s.803,1.716,1.79,1.716c.91,0,1.651-.769,1.651-1.716s-.773-1.72-1.723-1.72Z"/>
        <path d="M86.549,100.25c-1.245,0-2.257-1.015-2.257-2.262s1.012-2.254,2.257-2.254,2.262,1.012,2.262,2.254-1.015,2.262-2.262,2.262Z"/>
        <path class="cls-3" d="M86.549,96.272c-.947,0-1.718.769-1.718,1.716s.771,1.723,1.718,1.723,1.723-.773,1.723-1.723-.773-1.716-1.723-1.716Z"/>
        <path d="M119.366,100.25c-1.246,0-2.26-1.015-2.26-2.262s1.014-2.254,2.26-2.254,2.26,1.012,2.26,2.254-1.014,2.262-2.26,2.262Z"/>
        <path class="cls-3" d="M119.366,96.272c-.949,0-1.722.769-1.722,1.716s.772,1.723,1.722,1.723,1.721-.773,1.721-1.723-.772-1.716-1.721-1.716Z"/>
      </g>
    </g>
  </g>
</svg>